<svg width="202" height="81" viewBox="0 0 202 81" fill="none" xmlns="http://www.w3.org/2000/svg">
<path fill-rule="evenodd" clip-rule="evenodd" d="M44.0853 1C67.8833 1 87.1681 12.8036 87.1681 27.3764C87.1681 41.9493 67.8741 53.7529 44.0853 53.7529C20.2872 53.7529 1.00244 41.9493 1.00244 27.3764C1.00244 12.8036 20.2964 1 44.0853 1Z" fill="url(#paint0_linear)"/>
<path fill-rule="evenodd" clip-rule="evenodd" d="M44.0853 1C67.8833 1 87.1681 12.8036 87.1681 27.3764C87.1681 41.9493 67.8741 53.7529 44.0853 53.7529C20.2872 53.7529 1.00244 41.9493 1.00244 27.3764C1.00244 12.8036 20.2964 1 44.0853 1Z" stroke="#FEFEFE" stroke-width="0.035279"/>
<path fill-rule="evenodd" clip-rule="evenodd" d="M44.0853 1C67.8833 1 87.1681 12.8036 87.1681 27.3764C87.1681 41.9493 67.8741 53.7529 44.0853 53.7529C20.2872 53.7529 1.00244 41.9493 1.00244 27.3764C1.00244 12.8036 20.2964 1 44.0853 1Z" fill="url(#paint1_linear)"/>
<path fill-rule="evenodd" clip-rule="evenodd" d="M38.3127 47.7349C24.5891 45.2601 14.5146 37.1181 14.5146 27.4489C14.5146 17.7797 24.5891 9.63765 38.3127 7.16284V47.7349ZM20.9858 16.3169C22.9161 17.1633 29.663 19.8221 37.0166 19.3897L37.035 26.7497H15.8659C16.0681 22.8857 17.9249 19.2977 20.9766 16.3169H20.9858ZM37.0166 17.9913C35.5551 18.1109 29.9572 18.2765 22.1348 15.2681C25.8759 12.0848 31.0418 9.71125 36.989 8.59804L37.0166 17.9821V17.9913ZM37.0442 28.1481H15.8751C16.0865 32.0029 17.9708 35.5173 21.0501 38.4153C23.0448 37.5505 29.7641 34.9285 37.081 35.3609L37.0626 28.1389L37.0534 28.1481H37.0442ZM37.0718 36.7685C35.693 36.6581 30.0951 36.4465 22.2083 39.4549C25.977 42.5461 31.1705 44.8369 37.0902 45.9501L37.0626 36.7685H37.0718Z" fill="url(#paint2_linear)"/>
<path fill-rule="evenodd" clip-rule="evenodd" d="M38.3127 47.7349C24.5891 45.2601 14.5146 37.1181 14.5146 27.4489C14.5146 17.7797 24.5891 9.63765 38.3127 7.16284V47.7349ZM20.9858 16.3169C22.9161 17.1633 29.663 19.8221 37.0166 19.3897L37.035 26.7497H15.8659C16.0681 22.8857 17.9249 19.2977 20.9766 16.3169H20.9858ZM37.0166 17.9913C35.5551 18.1109 29.9572 18.2765 22.1348 15.2681C25.8759 12.0848 31.0418 9.71125 36.989 8.59804L37.0166 17.9821V17.9913ZM37.0442 28.1481H15.8751C16.0865 32.0029 17.9708 35.5173 21.0501 38.4153C23.0448 37.5505 29.7641 34.9285 37.081 35.3609L37.0626 28.1389L37.0534 28.1481H37.0442ZM37.0718 36.7685C35.693 36.6581 30.0951 36.4465 22.2083 39.4549C25.977 42.5461 31.1705 44.8369 37.0902 45.9501L37.0626 36.7685H37.0718Z" stroke="#FEFEFE" stroke-width="0.035279"/>
<path fill-rule="evenodd" clip-rule="evenodd" d="M53.6539 10.5039H48.8281V17.2107H53.6539V10.5039Z" fill="url(#paint3_linear)"/>
<path fill-rule="evenodd" clip-rule="evenodd" d="M48.8281 10.5039H53.6539V17.2107H48.8281V10.5039Z" stroke="#FEFEFE" stroke-width="0.035279"/>
<path fill-rule="evenodd" clip-rule="evenodd" d="M42.3662 25.1035H47.1828V18.3967H42.3662V25.1035Z" fill="url(#paint4_linear)"/>
<path fill-rule="evenodd" clip-rule="evenodd" d="M42.3662 18.3967H47.1828V25.1035H42.3662V18.3967Z" stroke="#FEFEFE" stroke-width="0.035279"/>
<path fill-rule="evenodd" clip-rule="evenodd" d="M48.8281 25.1035H53.6539V18.3967H48.8281V25.1035Z" fill="url(#paint5_linear)"/>
<path fill-rule="evenodd" clip-rule="evenodd" d="M48.8281 18.3967H53.6539V25.1035H48.8281V18.3967Z" stroke="#FEFEFE" stroke-width="0.035279"/>
<path fill-rule="evenodd" clip-rule="evenodd" d="M55.3008 25.1035H60.1266V18.3967H55.3008V25.1035Z" fill="url(#paint6_linear)"/>
<path fill-rule="evenodd" clip-rule="evenodd" d="M55.3008 18.3967H60.1266V25.1035H55.3008V18.3967Z" stroke="#FEFEFE" stroke-width="0.035279"/>
<path fill-rule="evenodd" clip-rule="evenodd" d="M61.7705 25.1035H66.5963V18.3967H61.7705V25.1035Z" fill="url(#paint7_linear)"/>
<path fill-rule="evenodd" clip-rule="evenodd" d="M61.7705 18.3967H66.5963V25.1035H61.7705V18.3967Z" stroke="#FEFEFE" stroke-width="0.035279"/>
<path fill-rule="evenodd" clip-rule="evenodd" d="M66.6259 33.9092H40.4287V35.4824C43.3058 34.4796 51.8635 35.326 51.8635 35.326C62.0942 36.0344 66.6259 33.9092 66.6259 33.9092Z" fill="url(#paint8_linear)"/>
<path fill-rule="evenodd" clip-rule="evenodd" d="M40.4287 33.9092H66.6259C66.6259 33.9092 62.0942 36.0344 51.8635 35.326C51.8635 35.326 43.3058 34.4796 40.4287 35.4824V33.9092Z" stroke="#FEFEFE" stroke-width="0.035279"/>
<path fill-rule="evenodd" clip-rule="evenodd" d="M40.4287 36.4209C41.3571 36.0989 44.4916 35.3721 52.5162 36.0805C62.5079 36.9637 68.3907 33.7805 68.3907 33.7805H70.7439C70.7439 33.7805 67.9219 37.4237 59.8146 38.0769C59.8146 38.0769 50.8524 38.0125 48.3522 37.7273C46.0082 37.4513 41.5961 37.7641 40.4379 38.1229V36.4209H40.4287Z" fill="url(#paint9_linear)"/>
<path fill-rule="evenodd" clip-rule="evenodd" d="M40.4287 36.4209C41.3571 36.0989 44.4916 35.3721 52.5162 36.0805C62.5079 36.9637 68.3907 33.7805 68.3907 33.7805H70.7439C70.7439 33.7805 67.9219 37.4237 59.8146 38.0769C59.8146 38.0769 50.8524 38.0125 48.3522 37.7273C46.0082 37.4513 41.5961 37.7641 40.4379 38.1229V36.4209H40.4287Z" stroke="#FEFEFE" stroke-width="0.035279"/>
<path fill-rule="evenodd" clip-rule="evenodd" d="M40.4287 39.0889V41.3613C41.3111 40.7449 44.1239 39.2729 50.448 39.7881C58.3898 40.4413 64.9162 40.1377 68.0874 38.7853C68.0874 38.7853 69.9074 38.3069 71.8561 33.7805C71.8561 33.7805 68.3907 38.5461 58.4542 38.7209C48.7291 38.8957 46.1002 37.4881 40.4287 39.0797V39.0889Z" fill="url(#paint10_linear)"/>
<path fill-rule="evenodd" clip-rule="evenodd" d="M40.4287 41.3516C41.3111 40.7352 44.1239 39.2632 50.448 39.7784C58.3898 40.4316 64.9162 40.128 68.0874 38.7756C68.0874 38.7756 69.9074 38.2972 71.8561 33.7708C71.8561 33.7708 68.3907 38.5364 58.4542 38.7112C48.7291 38.886 46.1002 37.4784 40.4287 39.07V41.3424V41.3516Z" stroke="#FEFEFE" stroke-width="0.035279"/>
<path fill-rule="evenodd" clip-rule="evenodd" d="M40.4276 43.7794C41.4847 43.0894 45.0144 41.553 54.5649 42.6662C54.5649 42.6662 61.4405 43.3194 63.7385 42.5466C63.7385 42.5466 65.9722 41.1298 67.1487 39.9614C67.1487 39.9614 61.7347 41.4334 52.5059 40.6146C43.9849 39.8602 41.3744 41.3046 40.4185 42.2246V43.7886H40.4276V43.7794Z" fill="url(#paint11_linear)"/>
<path fill-rule="evenodd" clip-rule="evenodd" d="M40.4276 43.7794C41.4847 43.0894 45.0144 41.553 54.5649 42.6662C54.5649 42.6662 61.4405 43.3194 63.7385 42.5466C63.7385 42.5466 65.9722 41.1298 67.1487 39.9614C67.1487 39.9614 61.7347 41.4334 52.5059 40.6146C43.9849 39.8602 41.3744 41.3046 40.4185 42.2246V43.7886H40.4276V43.7794Z" stroke="#FEFEFE" stroke-width="0.035279"/>
<path fill-rule="evenodd" clip-rule="evenodd" d="M40.4287 44.8191V46.5579C41.3479 45.8219 43.7654 44.3775 48.4533 44.7363C54.6855 45.2147 58.0957 45.3251 58.0957 45.3251L61.8644 43.6231C61.8644 43.6231 56.6342 43.9727 52.0474 43.3287C47.672 42.7123 42.8094 43.0527 40.4379 44.8283L40.4287 44.8191Z" fill="url(#paint12_linear)"/>
<path fill-rule="evenodd" clip-rule="evenodd" d="M40.4287 46.5579C41.3479 45.8219 43.7654 44.3775 48.4533 44.7363C54.6855 45.2147 58.0957 45.3251 58.0957 45.3251L61.8644 43.6231C61.8644 43.6231 56.6342 43.9727 52.0474 43.3287C47.672 42.7123 42.8094 43.0527 40.4379 44.8283V46.5671L40.4287 46.5579Z" stroke="#FEFEFE" stroke-width="0.035279"/>
<path d="M40.7123 32.4723V26.4187H42.4404C43.0838 26.4187 43.5343 26.5383 43.7824 26.7683C44.0306 26.9983 44.1593 27.3847 44.1593 27.9091V30.9819C44.1593 31.5155 44.0214 31.9019 43.7457 32.1319C43.4699 32.3619 43.0011 32.4815 42.3301 32.4815H40.7031L40.7123 32.4723ZM42.1738 27.2375V31.6167C42.3393 31.6167 42.468 31.5891 42.5507 31.5431C42.6334 31.4971 42.6794 31.4051 42.6794 31.2671V27.5871C42.6794 27.4307 42.6426 27.3387 42.5691 27.2927C42.4956 27.2467 42.3669 27.2283 42.183 27.2283L42.1738 27.2375ZM46.6228 29.9607H47.3489L47.1099 28.1299C47.1099 28.0195 47.1007 27.9275 47.0824 27.8171C47.0272 27.5043 46.9996 27.3295 46.9996 27.2927H46.9445C46.9445 27.4215 46.9445 27.5135 46.9353 27.5963C46.9261 27.6699 46.9077 27.8447 46.8709 28.1115L46.6503 29.9607H46.6411H46.6228ZM44.8303 32.4815L46.0988 26.4279H47.8545L49.123 32.4815H47.6798L47.4776 30.8623H46.4941L46.2735 32.4815H44.8487H44.8395H44.8303ZM49.6929 32.4815V26.4279H51.7243L52.2483 28.9947C52.3034 29.2707 52.3494 29.5559 52.3953 29.8687C52.4321 30.1907 52.4505 30.4667 52.4505 30.7335H52.524C52.524 30.5311 52.5148 30.2275 52.4872 29.8227C52.4597 29.4179 52.4505 29.1235 52.4505 28.9303V26.4187H53.5903V32.4723H51.8622L51.0993 29.1879C51.0533 29.0039 51.0165 28.7923 50.9706 28.5439C50.9338 28.3047 50.897 28.0287 50.8511 27.7435H50.8143C50.8143 27.8723 50.8235 28.0563 50.8419 28.3139C50.8603 28.5623 50.8695 28.7463 50.8695 28.8751V32.4723H49.6837L49.6745 32.4815H49.6929ZM55.971 29.9607H56.6972L56.4582 28.1299C56.4582 28.0195 56.449 27.9275 56.4306 27.8171C56.3755 27.5043 56.3479 27.3295 56.3479 27.2927H56.2927C56.2927 27.4215 56.2927 27.5135 56.2835 27.5963C56.2743 27.6699 56.256 27.8447 56.2192 28.1115L55.9986 29.9607H55.9894H55.971ZM54.1786 32.4815L55.4471 26.4279H57.2027L58.4712 32.4815H57.0281L56.8259 30.8623H55.8423L55.6217 32.4815H54.197H54.1878H54.1786ZM59.0411 32.4815V26.4279H61.0726L61.5965 28.9947C61.6516 29.2707 61.6976 29.5559 61.7436 29.8687C61.7803 30.1907 61.7987 30.4667 61.7987 30.7335H61.8723C61.8723 30.5311 61.8631 30.2275 61.8355 29.8227C61.8079 29.4179 61.7987 29.1235 61.7987 28.9303V26.4187H62.9385V32.4723H61.2104L60.4475 29.1879C60.4015 29.0039 60.3648 28.7923 60.3188 28.5439C60.282 28.3047 60.2453 28.0287 60.1993 27.7435H60.1625C60.1625 27.8723 60.1717 28.0563 60.1901 28.3139C60.2085 28.5623 60.2177 28.7463 60.2177 28.8751V32.4723H59.0319L59.0227 32.4815H59.0411ZM63.6003 27.8447C63.6003 27.3111 63.7198 26.9247 63.9496 26.6947C64.2254 26.4187 64.6758 26.2991 65.3284 26.2991C65.8983 26.2991 66.3396 26.4095 66.6245 26.6211C66.9187 26.8327 67.0565 27.1731 67.0565 27.6331V28.5347H65.5858V27.4675C65.5858 27.2743 65.5031 27.1731 65.3284 27.1731C65.2733 27.1731 65.2089 27.2007 65.1538 27.2467C65.0986 27.3019 65.0711 27.3755 65.0711 27.4583V31.3959C65.0711 31.4971 65.0894 31.5707 65.1354 31.6259C65.1814 31.6811 65.2457 31.7087 65.3101 31.7087C65.3652 31.7087 65.4387 31.6811 65.4939 31.6075C65.5582 31.5431 65.595 31.4603 65.595 31.3775V30.3103H65.2181V29.3903H67.0657V32.4539H66.3212L66.2476 32.0767C66.0822 32.2331 65.8983 32.3619 65.6777 32.4539C65.4663 32.5551 65.2365 32.6011 64.9975 32.6011C64.8596 32.6011 64.7126 32.5827 64.5747 32.5551C64.1978 32.4539 63.9313 32.2515 63.7842 31.9479C63.6647 31.7179 63.6095 31.4051 63.6095 31.0371V27.8355L63.6187 27.8447H63.6003ZM70.0807 32.4815V26.4279H71.8088C72.3419 26.4279 72.7372 26.5015 73.0221 26.6487C73.3622 26.8327 73.5277 27.1271 73.5277 27.5227V28.8107C73.5277 29.3075 73.3622 29.6571 73.0221 29.8595C72.728 30.0343 72.2868 30.1171 71.6801 30.1171H71.579V32.4815H70.0899H70.0807ZM72.0478 28.9303V27.5319C72.0478 27.3847 72.011 27.3019 71.9375 27.2467C71.8639 27.2007 71.7444 27.1823 71.5698 27.1823V29.2707C71.7536 29.2707 71.8823 29.2523 71.9283 29.2247C72.0018 29.1787 72.0478 29.0775 72.0478 28.9303ZM75.7246 27.4583V31.3959C75.7246 31.4971 75.7521 31.5707 75.7981 31.6259C75.8533 31.6811 75.9176 31.7087 75.9819 31.7087C76.0463 31.7087 76.1198 31.6811 76.1842 31.6075C76.2485 31.5431 76.2853 31.4603 76.2853 31.3775V27.4399C76.2853 27.3387 76.2577 27.2651 76.2117 27.2191C76.1566 27.1731 76.0922 27.1455 76.0095 27.1455C75.8257 27.1455 75.7246 27.2467 75.7246 27.4399V27.4583ZM74.1527 27.8539C74.1527 27.3203 74.2814 26.9431 74.5296 26.7039C74.8146 26.4279 75.3017 26.3083 76.0003 26.3083C76.7081 26.3083 77.1953 26.4463 77.4802 26.7039C77.7284 26.9339 77.8479 27.3203 77.8479 27.8539V31.0555C77.8479 31.5891 77.7192 31.9755 77.4802 32.2055C77.1953 32.4815 76.7081 32.6011 76.0003 32.6011C75.3109 32.6011 74.8146 32.4631 74.5296 32.2055C74.2814 31.9663 74.1527 31.5799 74.1527 31.0555V27.8539ZM78.712 32.4907V26.4371H80.4401C80.9732 26.4371 81.3684 26.5107 81.6534 26.6579C81.9935 26.8419 82.159 27.1363 82.159 27.5319V27.9735C82.159 28.3507 82.1038 28.6359 81.9751 28.8015C81.8005 29.0407 81.4787 29.1695 81.01 29.1695V29.1971C81.4328 29.2247 81.7269 29.3259 81.9016 29.4731C82.0762 29.6203 82.1498 29.8687 82.1498 30.2183V31.4787C82.1498 31.7087 82.159 31.8927 82.1773 32.0307C82.1957 32.1687 82.2325 32.3251 82.2968 32.4907H80.8353C80.7802 32.3527 80.7526 32.2055 80.725 32.0307C80.7066 31.8559 80.6974 31.6811 80.6974 31.5155V30.1907C80.6974 30.0343 80.6607 29.9055 80.5779 29.8227C80.5044 29.7215 80.3757 29.6847 80.2103 29.6847V32.4999H78.7212L78.712 32.4907ZM80.679 28.5163V27.5503C80.679 27.4123 80.6423 27.3203 80.5687 27.2743C80.4952 27.2283 80.3757 27.2099 80.2011 27.2099V28.8659C80.3665 28.8659 80.486 28.8383 80.5595 28.7923C80.6331 28.7463 80.679 28.6543 80.679 28.5163ZM83.9698 32.4907V27.3019H83.023V26.4279H86.4056V27.3019H85.4405V32.4907H83.979H83.9698Z" fill="#ED3237" stroke="#FEFEFE" stroke-width="0.035279"/>
<path fill-rule="evenodd" clip-rule="evenodd" d="M43.8748 4.9917C58.4717 4.9917 70.7982 11.6801 74.7967 20.8709H85.8454C86.7095 22.9593 87.1599 25.1305 87.1599 27.3753C87.1599 29.6845 86.6727 31.9201 85.7627 34.0545H74.6588C70.5224 43.089 58.3063 49.6394 43.8657 49.6394C26.024 49.6394 11.5742 39.6482 11.5742 27.3201C11.5742 14.9921 26.0332 5.0009 43.8657 5.0009H43.8748V4.9917Z" fill="#295097"/>
<path fill-rule="evenodd" clip-rule="evenodd" d="M38.3127 47.7349C24.5891 45.2601 14.5146 37.1181 14.5146 27.4489C14.5146 17.7797 24.5891 9.63765 38.3127 7.16284V47.7349ZM20.9858 16.3169C22.9161 17.1633 29.663 19.8221 37.0166 19.3897L37.035 26.7497H15.8659C16.0681 22.8857 17.9249 19.2977 20.9766 16.3169H20.9858ZM37.0166 17.9913C35.5551 18.1109 29.9572 18.2765 22.1348 15.2681C25.8759 12.0848 31.0418 9.71125 36.989 8.59804L37.0166 17.9821V17.9913ZM37.0442 28.1481H15.8751C16.0865 32.0029 17.9708 35.5173 21.0501 38.4153C23.0448 37.5505 29.7641 34.9285 37.081 35.3609L37.0626 28.1389L37.0534 28.1481H37.0442ZM37.0718 36.7685C35.693 36.6581 30.0951 36.4465 22.2083 39.4549C25.977 42.5461 31.1705 44.8369 37.0902 45.9501L37.0626 36.7685H37.0718Z" fill="url(#paint13_linear)"/>
<path fill-rule="evenodd" clip-rule="evenodd" d="M53.6539 10.5039H48.8281V17.2107H53.6539V10.5039Z" fill="url(#paint14_linear)"/>
<path fill-rule="evenodd" clip-rule="evenodd" d="M42.3662 25.1035H47.1828V18.3967H42.3662V25.1035Z" fill="url(#paint15_linear)"/>
<path fill-rule="evenodd" clip-rule="evenodd" d="M48.8281 25.1035H53.6539V18.3967H48.8281V25.1035Z" fill="url(#paint16_linear)"/>
<path fill-rule="evenodd" clip-rule="evenodd" d="M55.3008 25.1035H60.1266V18.3967H55.3008V25.1035Z" fill="url(#paint17_linear)"/>
<path fill-rule="evenodd" clip-rule="evenodd" d="M61.7705 25.1035H66.5963V18.3967H61.7705V25.1035Z" fill="url(#paint18_linear)"/>
<path fill-rule="evenodd" clip-rule="evenodd" d="M66.6259 33.9079H40.4287V35.4811C43.3058 34.4783 51.8635 35.3247 51.8635 35.3247C62.0942 36.0331 66.6259 33.9079 66.6259 33.9079ZM40.5206 47.6804C40.5206 47.6804 41.5226 44.0923 56.0459 46.0336C56.0459 46.0336 48.8118 48.5636 40.5206 47.6804ZM40.4379 44.8283V46.5672C41.3571 45.8312 43.7746 44.3867 48.4625 44.7455C54.6947 45.224 58.1049 45.3344 58.1049 45.3344L61.8736 43.6323C61.8736 43.6323 56.6434 43.9819 52.0566 43.3379C47.6812 42.7215 42.8186 43.0619 40.4471 44.8375L40.4379 44.8283ZM40.4379 43.7887C41.495 43.0987 45.0247 41.5623 54.5752 42.6755C54.5752 42.6755 61.4508 43.3287 63.7488 42.5559C63.7488 42.5559 65.9824 41.1391 67.159 39.9707C67.159 39.9707 61.7449 41.4427 52.5162 40.6239C43.9952 39.8695 41.3847 41.3139 40.4287 42.2339V43.7979H40.4379V43.7887ZM40.4379 39.0967V41.3691C41.3203 40.7527 44.1331 39.2807 50.4572 39.7959C58.399 40.4491 64.9254 40.1455 68.0966 38.7931C68.0966 38.7931 69.9166 38.3147 71.8653 33.7883C71.8653 33.7883 68.3999 38.5539 58.4634 38.7287C48.7383 38.9035 46.1094 37.4959 40.4379 39.0875V39.0967ZM40.4379 36.4287C41.3663 36.1067 44.5008 35.3799 52.5254 36.0883C62.5171 36.9715 68.3999 33.7883 68.3999 33.7883H70.7531C70.7531 33.7883 67.9311 37.4315 59.8238 38.0847C59.8238 38.0847 50.8616 38.0203 48.3614 37.7351C46.0174 37.4591 41.6053 37.7719 40.4471 38.1307V36.4287H40.4379Z" fill="url(#paint19_linear)"/>
<path d="M40.7123 32.4723V26.4187H42.4404C43.0838 26.4187 43.5343 26.5383 43.7824 26.7683C44.0306 26.9983 44.1593 27.3847 44.1593 27.9091V30.9819C44.1593 31.5155 44.0214 31.9019 43.7457 32.1319C43.4699 32.3619 43.0011 32.4815 42.3301 32.4815H40.7031L40.7123 32.4723ZM42.1738 27.2375V31.6167C42.3393 31.6167 42.468 31.5891 42.5507 31.5431C42.6334 31.4971 42.6794 31.4051 42.6794 31.2671V27.5871C42.6794 27.4307 42.6426 27.3387 42.5691 27.2927C42.4956 27.2467 42.3669 27.2283 42.183 27.2283L42.1738 27.2375ZM46.6228 29.9607H47.3489L47.1099 28.1299C47.1099 28.0195 47.1007 27.9275 47.0824 27.8171C47.0272 27.5043 46.9996 27.3295 46.9996 27.2927H46.9445C46.9445 27.4215 46.9445 27.5135 46.9353 27.5963C46.9261 27.6699 46.9077 27.8447 46.8709 28.1115L46.6503 29.9607H46.6411H46.6228ZM44.8303 32.4815L46.0988 26.4279H47.8545L49.123 32.4815H47.6798L47.4776 30.8623H46.4941L46.2735 32.4815H44.8487H44.8395H44.8303ZM49.6929 32.4815V26.4279H51.7243L52.2483 28.9947C52.3034 29.2707 52.3494 29.5559 52.3953 29.8687C52.4321 30.1907 52.4505 30.4667 52.4505 30.7335H52.524C52.524 30.5311 52.5148 30.2275 52.4872 29.8227C52.4597 29.4179 52.4505 29.1235 52.4505 28.9303V26.4187H53.5903V32.4723H51.8622L51.0993 29.1879C51.0533 29.0039 51.0165 28.7923 50.9706 28.5439C50.9338 28.3047 50.897 28.0287 50.8511 27.7435H50.8143C50.8143 27.8723 50.8235 28.0563 50.8419 28.3139C50.8603 28.5623 50.8695 28.7463 50.8695 28.8751V32.4723H49.6837L49.6745 32.4815H49.6929ZM55.971 29.9607H56.6972L56.4582 28.1299C56.4582 28.0195 56.449 27.9275 56.4306 27.8171C56.3755 27.5043 56.3479 27.3295 56.3479 27.2927H56.2927C56.2927 27.4215 56.2927 27.5135 56.2835 27.5963C56.2743 27.6699 56.256 27.8447 56.2192 28.1115L55.9986 29.9607H55.9894H55.971ZM54.1786 32.4815L55.4471 26.4279H57.2027L58.4712 32.4815H57.0281L56.8259 30.8623H55.8423L55.6217 32.4815H54.197H54.1878H54.1786ZM59.0411 32.4815V26.4279H61.0726L61.5965 28.9947C61.6516 29.2707 61.6976 29.5559 61.7436 29.8687C61.7803 30.1907 61.7987 30.4667 61.7987 30.7335H61.8723C61.8723 30.5311 61.8631 30.2275 61.8355 29.8227C61.8079 29.4179 61.7987 29.1235 61.7987 28.9303V26.4187H62.9385V32.4723H61.2104L60.4475 29.1879C60.4015 29.0039 60.3648 28.7923 60.3188 28.5439C60.282 28.3047 60.2453 28.0287 60.1993 27.7435H60.1625C60.1625 27.8723 60.1717 28.0563 60.1901 28.3139C60.2085 28.5623 60.2177 28.7463 60.2177 28.8751V32.4723H59.0319L59.0227 32.4815H59.0411ZM63.6003 27.8447C63.6003 27.3111 63.7198 26.9247 63.9496 26.6947C64.2254 26.4187 64.6758 26.2991 65.3284 26.2991C65.8983 26.2991 66.3396 26.4095 66.6245 26.6211C66.9187 26.8327 67.0565 27.1731 67.0565 27.6331V28.5347H65.5858V27.4675C65.5858 27.2743 65.5031 27.1731 65.3284 27.1731C65.2733 27.1731 65.2089 27.2007 65.1538 27.2467C65.0986 27.3019 65.0711 27.3755 65.0711 27.4583V31.3959C65.0711 31.4971 65.0894 31.5707 65.1354 31.6259C65.1814 31.6811 65.2457 31.7087 65.3101 31.7087C65.3652 31.7087 65.4387 31.6811 65.4939 31.6075C65.5582 31.5431 65.595 31.4603 65.595 31.3775V30.3103H65.2181V29.3903H67.0657V32.4539H66.3212L66.2476 32.0767C66.0822 32.2331 65.8983 32.3619 65.6777 32.4539C65.4663 32.5551 65.2365 32.6011 64.9975 32.6011C64.8596 32.6011 64.7126 32.5827 64.5747 32.5551C64.1978 32.4539 63.9313 32.2515 63.7842 31.9479C63.6647 31.7179 63.6095 31.4051 63.6095 31.0371V27.8355L63.6187 27.8447H63.6003ZM70.0807 32.4815V26.4279H71.8088C72.3419 26.4279 72.7372 26.5015 73.0221 26.6487C73.3622 26.8327 73.5277 27.1271 73.5277 27.5227V28.8107C73.5277 29.3075 73.3622 29.6571 73.0221 29.8595C72.728 30.0343 72.2868 30.1171 71.6801 30.1171H71.579V32.4815H70.0899H70.0807ZM72.0478 28.9303V27.5319C72.0478 27.3847 72.011 27.3019 71.9375 27.2467C71.8639 27.2007 71.7444 27.1823 71.5698 27.1823V29.2707C71.7536 29.2707 71.8823 29.2523 71.9283 29.2247C72.0018 29.1787 72.0478 29.0775 72.0478 28.9303ZM75.7246 27.4583V31.3959C75.7246 31.4971 75.7521 31.5707 75.7981 31.6259C75.8533 31.6811 75.9176 31.7087 75.9819 31.7087C76.0463 31.7087 76.1198 31.6811 76.1842 31.6075C76.2485 31.5431 76.2853 31.4603 76.2853 31.3775V27.4399C76.2853 27.3387 76.2577 27.2651 76.2117 27.2191C76.1566 27.1731 76.0922 27.1455 76.0095 27.1455C75.8257 27.1455 75.7246 27.2467 75.7246 27.4399V27.4583ZM74.1527 27.8539C74.1527 27.3203 74.2814 26.9431 74.5296 26.7039C74.8146 26.4279 75.3017 26.3083 76.0003 26.3083C76.7081 26.3083 77.1953 26.4463 77.4802 26.7039C77.7284 26.9339 77.8479 27.3203 77.8479 27.8539V31.0555C77.8479 31.5891 77.7192 31.9755 77.4802 32.2055C77.1953 32.4815 76.7081 32.6011 76.0003 32.6011C75.3109 32.6011 74.8146 32.4631 74.5296 32.2055C74.2814 31.9663 74.1527 31.5799 74.1527 31.0555V27.8539ZM78.712 32.4907V26.4371H80.4401C80.9732 26.4371 81.3684 26.5107 81.6534 26.6579C81.9935 26.8419 82.159 27.1363 82.159 27.5319V27.9735C82.159 28.3507 82.1038 28.6359 81.9751 28.8015C81.8005 29.0407 81.4787 29.1695 81.01 29.1695V29.1971C81.4328 29.2247 81.7269 29.3259 81.9016 29.4731C82.0762 29.6203 82.1498 29.8687 82.1498 30.2183V31.4787C82.1498 31.7087 82.159 31.8927 82.1773 32.0307C82.1957 32.1687 82.2325 32.3251 82.2968 32.4907H80.8353C80.7802 32.3527 80.7526 32.2055 80.725 32.0307C80.7066 31.8559 80.6974 31.6811 80.6974 31.5155V30.1907C80.6974 30.0343 80.6607 29.9055 80.5779 29.8227C80.5044 29.7215 80.3757 29.6847 80.2103 29.6847V32.4999H78.7212L78.712 32.4907ZM80.679 28.5163V27.5503C80.679 27.4123 80.6423 27.3203 80.5687 27.2743C80.4952 27.2283 80.3757 27.2099 80.2011 27.2099V28.8659C80.3665 28.8659 80.486 28.8383 80.5595 28.7923C80.6331 28.7463 80.679 28.6543 80.679 28.5163ZM83.9698 32.4907V27.3019H83.023V26.4279H86.4056V27.3019H85.4405V32.4907H83.979H83.9698Z" fill="#ED3237"/>
<path fill-rule="evenodd" clip-rule="evenodd" d="M40.5093 47.6808C40.5093 47.6808 41.5112 44.0928 56.0345 46.034C56.0345 46.034 48.8004 48.564 40.5093 47.6808Z" fill="url(#paint20_linear)"/>
<path d="M11.7865 64.2973L13.487 64.1317C13.5881 64.7021 13.7995 65.1161 14.1028 65.3829C14.4154 65.6497 14.829 65.7785 15.3621 65.7785C15.9228 65.7785 16.3365 65.6589 16.6214 65.4289C16.9064 65.1897 17.0535 64.9137 17.0535 64.5917C17.0535 64.3893 16.9891 64.2145 16.8696 64.0765C16.7501 63.9293 16.5387 63.8097 16.2446 63.7085C16.0423 63.6349 15.5827 63.5153 14.8566 63.3313C13.9282 63.1013 13.2664 62.8161 12.8987 62.4757C12.3747 61.9973 12.1082 61.4177 12.1082 60.7277C12.1082 60.2861 12.2369 59.8721 12.4758 59.4857C12.724 59.0993 13.0825 58.8049 13.5513 58.6117C14.0201 58.4093 14.5808 58.3081 15.2426 58.3081C16.3181 58.3081 17.1362 58.5473 17.6785 59.0349C18.23 59.5133 18.515 60.1573 18.5334 60.9577L16.7869 61.0221C16.7134 60.5805 16.5571 60.2585 16.3089 60.0561C16.0699 59.8629 15.7022 59.7617 15.2151 59.7617C14.7095 59.7617 14.3234 59.8629 14.0385 60.0745C13.8546 60.2125 13.7627 60.3873 13.7627 60.6173C13.7627 60.8197 13.8455 60.9945 14.0201 61.1417C14.2407 61.3257 14.7738 61.5189 15.6103 61.7213C16.456 61.9145 17.081 62.1261 17.4855 62.3469C17.8899 62.5677 18.2116 62.8529 18.4414 63.2301C18.6712 63.5981 18.7907 64.0581 18.7907 64.6101C18.7907 65.1069 18.6529 65.5669 18.3771 65.9993C18.1013 66.4317 17.7153 66.7537 17.2097 66.9653C16.7042 67.1769 16.0791 67.2781 15.3254 67.2781C14.2315 67.2781 13.4042 67.0297 12.816 66.5237C12.2277 66.0177 11.8876 65.2909 11.7681 64.3249L11.7865 64.3065V64.2973ZM20.2247 67.0941V58.4553H21.9712V67.0941H20.2247ZM23.6349 67.0941V58.4553H25.3262L28.8743 64.2421V58.4553H30.4921V67.0941H28.7457L25.2527 61.4177V67.0941H23.6349ZM37.8641 63.9109L39.5462 64.4261C39.2889 65.3737 38.8568 66.0821 38.2502 66.5513C37.6527 67.0113 36.8806 67.2413 35.9522 67.2413C34.8124 67.2413 33.8656 66.8457 33.121 66.0637C32.3857 65.2817 32.018 64.2053 32.018 62.8529C32.018 61.4177 32.3857 60.2953 33.1302 59.5041C33.8748 58.7037 34.8491 58.3081 36.0533 58.3081C37.1104 58.3081 37.9744 58.6209 38.627 59.2465C39.0223 59.6145 39.3072 60.1481 39.5187 60.8381L37.7998 61.2521C37.6986 60.8105 37.4872 60.4517 37.1563 60.1941C36.8346 59.9365 36.4302 59.7985 35.9797 59.7985C35.3363 59.7985 34.8216 60.0285 34.4263 60.4885C34.031 60.9485 33.8288 61.6937 33.8288 62.7241C33.8288 63.8189 34.0219 64.5917 34.4171 65.0609C34.8124 65.5301 35.3179 65.7509 35.9522 65.7509C36.421 65.7509 36.8162 65.6037 37.1471 65.3093C37.478 65.0149 37.717 64.5457 37.8733 63.9201V63.9017L37.8641 63.9109ZM41.0445 67.0941V58.4553H47.433V59.9181H42.791V61.8409H47.1112V63.3037H42.791V65.6405H47.5984V67.1033H41.0445H41.0537L41.0445 67.0941ZM56.294 67.0941H54.6395V60.8381C54.042 61.3993 53.325 61.8225 52.5069 62.0985V60.5897C52.9389 60.4425 53.4077 60.1849 53.9133 59.7801C54.4189 59.3845 54.759 58.9245 54.952 58.4001H56.294V67.0849H56.3032L56.294 67.0941ZM58.831 65.0885L60.4304 64.9137C60.4672 65.2449 60.5775 65.4841 60.7337 65.6405C60.8992 65.7969 61.1106 65.8797 61.3772 65.8797C61.7173 65.8797 62.0022 65.7233 62.2412 65.4013C62.4802 65.0885 62.6365 64.4261 62.6916 63.4325C62.278 63.9109 61.7632 64.1593 61.1382 64.1593C60.458 64.1593 59.8789 63.8925 59.3825 63.3773C58.8954 62.8529 58.6472 62.1721 58.6472 61.3257C58.6472 60.4517 58.9045 59.7433 59.4285 59.2097C59.9432 58.6761 60.6051 58.4001 61.414 58.4001C62.2872 58.4001 63.0042 58.7405 63.5649 59.4121C64.1256 60.0929 64.4105 61.2153 64.4105 62.7609C64.4105 64.3433 64.1164 65.4841 63.5373 66.1833C62.9582 66.8825 62.1953 67.2413 61.2577 67.2413C60.5775 67.2413 60.0352 67.0573 59.6215 66.6985C59.2079 66.3397 58.9413 65.7969 58.8218 65.0793V65.0609L58.831 65.0885ZM62.5538 61.4637C62.5538 60.9301 62.4343 60.5161 62.1861 60.2217C61.9471 59.9273 61.6621 59.7801 61.3404 59.7801C61.0279 59.7801 60.7797 59.8997 60.5775 60.1389C60.3753 60.3781 60.2741 60.7737 60.2741 61.3165C60.2741 61.8777 60.3845 62.2825 60.6051 62.5401C60.8257 62.7977 61.0922 62.9357 61.4231 62.9357C61.7357 62.9357 62.0114 62.8069 62.232 62.5585C62.4526 62.3101 62.5538 61.9421 62.5538 61.4545V61.4637ZM68.2804 58.4093C69.1168 58.4093 69.7695 58.7129 70.2474 59.3017C70.8082 60.0101 71.0931 61.1877 71.0931 62.8253C71.0931 64.4629 70.8082 65.6405 70.2474 66.3581C69.7787 66.9561 69.126 67.2505 68.2896 67.2505C67.4439 67.2505 66.7729 66.9285 66.2581 66.2753C65.7434 65.6313 65.486 64.4721 65.486 62.8161C65.486 61.1785 65.771 60.0101 66.3317 59.2925C66.8005 58.6945 67.4531 58.4001 68.2896 58.4001V58.4093H68.2804ZM68.2804 59.7893C68.0873 59.7893 67.9035 59.8537 67.7564 59.9825C67.6002 60.1113 67.4807 60.3321 67.3979 60.6633C67.2876 61.0957 67.2325 61.8133 67.2325 62.8345C67.2325 63.8465 67.2876 64.5549 67.3795 64.9229C67.4807 65.3093 67.6093 65.5577 67.7564 65.6865C67.9035 65.8153 68.0873 65.8705 68.2804 65.8705C68.4734 65.8705 68.6572 65.8061 68.8043 65.6773C68.9514 65.5485 69.0709 65.3277 69.1628 64.9965C69.2731 64.5733 69.3282 63.8557 69.3282 62.8345C69.3282 61.8225 69.2731 61.1141 69.1812 60.7461C69.0801 60.3597 68.9514 60.1113 68.7951 59.9825C68.648 59.8537 68.4642 59.7893 68.2712 59.7893H68.2804ZM76.4061 67.0941H74.7515V60.8381C74.154 61.3993 73.4371 61.8225 72.619 62.0985V60.5897C73.051 60.4425 73.5198 60.1849 74.0254 59.7801C74.5309 59.3845 74.871 58.9245 75.064 58.4001H76.4061V67.0849H76.4153L76.4061 67.0941Z" fill="white"/>
<circle cx="82.6435" cy="75.8518" r="5.14842" fill="white"/>
<path d="M81.1239 75.6234C80.0938 75.6234 79.0636 75.6234 78.0335 75.6234C77.9302 75.6234 77.9216 75.6119 77.9474 75.5114C77.956 75.4827 77.956 75.4511 77.9589 75.4195C77.9761 75.2874 77.9933 75.1582 78.0134 75.0261C78.0306 74.9113 78.0507 74.7993 78.0765 74.6845C78.1023 74.5782 78.131 74.472 78.1683 74.3686C78.2372 74.182 78.3089 73.9925 78.3921 73.8116C78.4639 73.6594 78.5557 73.513 78.6418 73.3666C78.7795 73.1283 78.946 72.91 79.1296 72.7062C79.1726 72.6602 79.1985 72.6401 79.2673 72.6832C79.5715 72.867 79.8843 73.0392 80.1942 73.2144C80.527 73.4039 80.8599 73.5934 81.1899 73.7858C81.4711 73.9494 81.7523 74.116 82.0335 74.2767C82.3807 74.4777 82.7308 74.6758 83.0809 74.8768C83.2961 75.0003 83.5113 75.1266 83.7265 75.253C83.8987 75.3535 84.0709 75.4539 84.243 75.5573C84.2631 75.5688 84.2775 75.5889 84.2975 75.6061C84.2746 75.6119 84.2545 75.6176 84.2315 75.6176C83.1928 75.6234 82.1598 75.6234 81.1239 75.6234Z" fill="#295097"/>
<path d="M81.1239 76.0798C82.154 76.0798 83.1842 76.0798 84.2143 76.0798C84.2402 76.0798 84.2689 76.0884 84.2947 76.0913C84.2717 76.1085 84.2516 76.1315 84.2287 76.1459C83.8499 76.367 83.4683 76.5852 83.0866 76.8063C82.7538 76.9986 82.4209 77.1967 82.088 77.3891C81.7437 77.5872 81.3965 77.7825 81.0522 77.9806C80.7681 78.1442 80.484 78.3079 80.1999 78.4744C79.8785 78.6611 79.56 78.8506 79.2386 79.0343C79.2214 79.0458 79.1755 79.0372 79.1612 79.0228C79.0464 78.8879 78.9259 78.7558 78.8226 78.6123C78.7107 78.4543 78.6045 78.2907 78.5127 78.1184C78.4208 77.9519 78.3462 77.7767 78.2716 77.6045C78.22 77.4867 78.1741 77.3661 78.1368 77.2456C78.0966 77.1163 78.0708 76.9814 78.0421 76.8493C78.0134 76.7172 77.9876 76.588 77.9646 76.456C77.956 76.4129 77.9589 76.3698 77.956 76.3268C77.9503 76.2665 77.9445 76.209 77.9359 76.1516C77.9302 76.1057 77.9416 76.077 77.9962 76.0827C78.0162 76.0856 78.0392 76.0827 78.0593 76.0827C79.0808 76.0798 80.1024 76.0798 81.1239 76.0798Z" fill="#295097"/>
<path d="M79.6031 72.3245L79.5743 72.2727C79.5628 72.2871 79.5657 72.3043 79.6031 72.3245Z" fill="#295097"/>
<path d="M82.725 74.1275C83.0665 74.3256 83.4108 74.5209 83.7523 74.719C83.9991 74.8626 84.2487 75.0032 84.4955 75.1468C84.5012 75.1497 84.507 75.1525 84.5127 75.1525L82.1167 73.7715C82.3176 73.8921 82.5213 74.0098 82.725 74.1275Z" fill="#295097"/>
<path d="M80.4294 72.8036C80.7106 72.9672 80.9918 73.1338 81.273 73.2946C81.4423 73.3922 81.6116 73.4841 81.7809 73.5788L80.0908 72.6055C80.2056 72.6715 80.3175 72.7375 80.4294 72.8036Z" fill="#295097"/>
<path d="M84.5268 76.5335C84.3948 76.611 84.2628 76.6886 84.1308 76.7632C83.7864 76.9613 83.4392 77.1566 83.0978 77.3547C82.8969 77.4695 82.6989 77.5901 82.498 77.7079L84.5469 76.5249C84.5382 76.5278 84.5325 76.5306 84.5268 76.5335Z" fill="#295097"/>
<path d="M79.6085 79.4621C79.6142 79.4678 79.6228 79.4707 79.6286 79.4764L79.6142 79.373C79.5568 79.4075 79.554 79.4247 79.6085 79.4621Z" fill="#295097"/>
<path d="M81.4597 78.3022C81.1842 78.463 80.9088 78.6237 80.6333 78.7845L82.0135 77.9863C81.8299 78.0926 81.6434 78.1959 81.4597 78.3022Z" fill="#295097"/>
<path opacity="0.36" d="M81.7808 73.5789L82.1165 73.7712C82.0476 73.731 81.9788 73.6908 81.9128 73.6535C81.8668 73.6277 81.8238 73.6047 81.7808 73.5789Z" fill="#295097"/>
<path opacity="0.36" d="M80.0908 72.6056C79.9272 72.5108 79.7637 72.4161 79.6001 72.3242L80.0908 72.6056Z" fill="#295097"/>
<path opacity="0.36" d="M82.4957 77.7109L82.0137 77.9894C82.0911 77.9464 82.1686 77.9004 82.249 77.8545C82.3322 77.8057 82.4125 77.7597 82.4957 77.7109Z" fill="#295097"/>
<path opacity="0.36" d="M80.6329 78.7844L79.6143 79.373C79.8811 79.2209 80.1451 79.0687 80.412 78.9136C80.4866 78.8734 80.5583 78.8275 80.6329 78.7844Z" fill="#295097"/>
<path d="M84.5389 75.1012C84.5015 75.038 84.4614 74.9777 84.4241 74.9146C84.1744 74.4839 83.9277 74.0532 83.678 73.6254C83.4972 73.3124 83.3165 72.9995 83.1357 72.6865C82.9606 72.385 82.7885 72.0864 82.6134 71.7849C82.5044 71.5954 82.3953 71.4031 82.2863 71.2136C82.272 71.1906 82.2461 71.1734 82.2203 71.1504C82.0137 71.1877 81.8128 71.2193 81.6148 71.2595C81.4542 71.294 81.2935 71.3284 81.1414 71.383C80.9491 71.449 80.7597 71.5265 80.579 71.6127C80.226 71.7849 79.9018 72.0031 79.5976 72.2501C79.589 72.2587 79.5775 72.2673 79.5718 72.273L79.6005 72.3247C79.764 72.4166 79.9276 72.5114 80.0912 72.6061L81.7813 73.5795C81.8243 73.6053 81.8674 73.6283 81.9104 73.6541C81.9793 73.6943 82.0481 73.7345 82.1141 73.7718L84.5102 75.1529C84.5216 75.1558 84.536 75.1558 84.5503 75.1586C84.5475 75.1385 84.5475 75.1184 84.5389 75.1012Z" fill="#295097"/>
<path opacity="0.36" d="M84.5389 75.1012C84.5015 75.038 84.4614 74.9777 84.4241 74.9146C84.1744 74.4839 83.9277 74.0532 83.678 73.6254C83.4972 73.3124 83.3165 72.9995 83.1357 72.6865C82.9606 72.385 82.7885 72.0864 82.6134 71.7849C82.5044 71.5954 82.3953 71.4031 82.2863 71.2136C82.272 71.1906 82.2461 71.1734 82.2203 71.1504C82.0137 71.1877 81.8128 71.2193 81.6148 71.2595C81.4542 71.294 81.2935 71.3284 81.1414 71.383C80.9491 71.449 80.7597 71.5265 80.579 71.6127C80.226 71.7849 79.9018 72.0031 79.5976 72.2501C79.589 72.2587 79.5775 72.2673 79.5718 72.273L79.6005 72.3247C79.764 72.4166 79.9276 72.5114 80.0912 72.6061L81.7813 73.5795C81.8243 73.6053 81.8674 73.6283 81.9104 73.6541C81.9793 73.6943 82.0481 73.7345 82.1141 73.7718L84.5102 75.1529C84.5216 75.1558 84.536 75.1558 84.5503 75.1586C84.5475 75.1385 84.5475 75.1184 84.5389 75.1012Z" fill="#295097"/>
<path d="M80.6702 80.1314C80.8194 80.2003 80.9773 80.2577 81.1322 80.3122C81.247 80.3524 81.3675 80.3898 81.4852 80.4185C81.5856 80.4443 81.686 80.4615 81.7893 80.4816C81.9012 80.5046 82.016 80.5247 82.1308 80.5448C82.1308 80.5419 82.1308 80.5391 82.1337 80.5362C82.1624 80.5362 82.1911 80.5419 82.2197 80.5362C82.2456 80.5305 82.2743 80.519 82.2886 80.4989C82.3173 80.4644 82.3345 80.4213 82.3575 80.384C82.4837 80.1601 82.61 79.9361 82.7391 79.7122C82.9658 79.3217 83.1925 78.9312 83.4192 78.5407C83.5856 78.2536 83.7492 77.9607 83.9156 77.6736C84.1308 77.3032 84.346 76.9357 84.5612 76.5653C84.567 76.5538 84.5641 76.5366 84.567 76.5222C84.5612 76.5251 84.5555 76.528 84.5469 76.528L82.4952 77.7109C82.412 77.7597 82.3288 77.8085 82.2484 77.8545C82.171 77.9004 82.0935 77.9435 82.0131 77.9894L80.6329 78.7876C80.5583 78.8307 80.4866 78.8738 80.412 78.9168C80.148 79.0719 79.8811 79.2212 79.6143 79.3762L79.6286 79.4796C79.8094 79.6117 79.9873 79.7495 80.1767 79.8701C80.3316 79.9677 80.5009 80.051 80.6702 80.1314Z" fill="#295097"/>
<path opacity="0.36" d="M80.6702 80.1314C80.8194 80.2003 80.9773 80.2577 81.1322 80.3122C81.247 80.3524 81.3675 80.3898 81.4852 80.4185C81.5856 80.4443 81.686 80.4615 81.7893 80.4816C81.9012 80.5046 82.016 80.5247 82.1308 80.5448C82.1308 80.5419 82.1308 80.5391 82.1337 80.5362C82.1624 80.5362 82.1911 80.5419 82.2197 80.5362C82.2456 80.5305 82.2743 80.519 82.2886 80.4989C82.3173 80.4644 82.3345 80.4213 82.3575 80.384C82.4837 80.1601 82.61 79.9361 82.7391 79.7122C82.9658 79.3217 83.1925 78.9312 83.4192 78.5407C83.5856 78.2536 83.7492 77.9607 83.9156 77.6736C84.1308 77.3032 84.346 76.9357 84.5612 76.5653C84.567 76.5538 84.5641 76.5366 84.567 76.5222C84.5612 76.5251 84.5555 76.528 84.5469 76.528L82.4952 77.7109C82.412 77.7597 82.3288 77.8085 82.2484 77.8545C82.171 77.9004 82.0935 77.9435 82.0131 77.9894L80.6329 78.7876C80.5583 78.8307 80.4866 78.8738 80.412 78.9168C80.148 79.0719 79.8811 79.2212 79.6143 79.3762L79.6286 79.4796C79.8094 79.6117 79.9873 79.7495 80.1767 79.8701C80.3316 79.9677 80.5009 80.051 80.6702 80.1314Z" fill="#295097"/>
<path d="M84.995 78.3538C84.995 78.3423 84.995 78.3308 84.995 78.3193C84.995 77.8226 84.995 77.323 84.995 76.8263C84.995 76.8033 84.9836 76.7832 84.9778 76.7603C84.9635 76.7746 84.9491 76.789 84.9377 76.8062C84.8028 77.0388 84.6679 77.2713 84.5331 77.5068C84.4039 77.7336 84.2777 77.9633 84.1457 78.1901C83.9534 78.5203 83.7583 78.8505 83.566 79.1836C83.434 79.4133 83.3021 79.643 83.1701 79.8698C83.0495 80.0765 82.929 80.2833 82.8114 80.49C82.7741 80.556 82.7798 80.5646 82.8573 80.5618C82.9577 80.556 83.061 80.5445 83.1614 80.533C83.259 80.5216 83.3594 80.5187 83.457 80.4986C83.6033 80.4699 83.7497 80.4326 83.8932 80.3924C84.0539 80.3464 84.2174 80.3005 84.3724 80.2373C84.556 80.1627 84.7339 80.0708 84.9118 79.9846C84.9721 79.9559 84.995 79.9157 84.9922 79.8468C84.9922 79.3501 84.995 78.8505 84.995 78.3538Z" fill="#295097"/>
<path opacity="0.36" d="M84.995 78.3538C84.995 78.3423 84.995 78.3308 84.995 78.3193C84.995 77.8226 84.995 77.323 84.995 76.8263C84.995 76.8033 84.9836 76.7832 84.9778 76.7603C84.9635 76.7746 84.9491 76.789 84.9377 76.8062C84.8028 77.0388 84.6679 77.2713 84.5331 77.5068C84.4039 77.7336 84.2777 77.9633 84.1457 78.1901C83.9534 78.5203 83.7583 78.8505 83.566 79.1836C83.434 79.4133 83.3021 79.643 83.1701 79.8698C83.0495 80.0765 82.929 80.2833 82.8114 80.49C82.7741 80.556 82.7798 80.5646 82.8573 80.5618C82.9577 80.556 83.061 80.5445 83.1614 80.533C83.259 80.5216 83.3594 80.5187 83.457 80.4986C83.6033 80.4699 83.7497 80.4326 83.8932 80.3924C84.0539 80.3464 84.2174 80.3005 84.3724 80.2373C84.556 80.1627 84.7339 80.0708 84.9118 79.9846C84.9721 79.9559 84.995 79.9157 84.9922 79.8468C84.9922 79.3501 84.995 78.8505 84.995 78.3538Z" fill="#295097"/>
<path d="M84.9948 73.3493C84.9948 73.1569 84.9948 72.9674 84.9948 72.7751C84.9948 72.4592 84.9948 72.1434 84.9919 71.8276C84.9919 71.7988 84.9776 71.7558 84.9575 71.7443C84.8255 71.6725 84.6935 71.6007 84.5557 71.5404C84.4008 71.4744 84.2401 71.417 84.0794 71.3595C83.9589 71.3193 83.8355 71.282 83.7092 71.2533C83.5887 71.2246 83.4625 71.2074 83.3391 71.1901C83.1784 71.17 83.0206 71.1528 82.8599 71.1356C82.8369 71.1327 82.814 71.1413 82.791 71.1442C82.7996 71.1672 82.8054 71.193 82.8168 71.216C82.923 71.4026 83.0321 71.5864 83.1411 71.773C83.3907 72.2037 83.6375 72.6315 83.8843 73.0622C84.0852 73.4067 84.286 73.7513 84.484 74.0987C84.6361 74.3629 84.7882 74.627 84.9403 74.8912C84.9489 74.9084 84.9661 74.9199 84.9804 74.9342C84.9862 74.917 84.9919 74.8998 84.9919 74.8797C84.9948 74.8596 84.9919 74.8423 84.9919 74.8222C84.9948 74.337 84.9948 73.8432 84.9948 73.3493Z" fill="#295097"/>
<path opacity="0.36" d="M84.9948 73.3493C84.9948 73.1569 84.9948 72.9674 84.9948 72.7751C84.9948 72.4592 84.9948 72.1434 84.9919 71.8276C84.9919 71.7988 84.9776 71.7558 84.9575 71.7443C84.8255 71.6725 84.6935 71.6007 84.5557 71.5404C84.4008 71.4744 84.2401 71.417 84.0794 71.3595C83.9589 71.3193 83.8355 71.282 83.7092 71.2533C83.5887 71.2246 83.4625 71.2074 83.3391 71.1901C83.1784 71.17 83.0206 71.1528 82.8599 71.1356C82.8369 71.1327 82.814 71.1413 82.791 71.1442C82.7996 71.1672 82.8054 71.193 82.8168 71.216C82.923 71.4026 83.0321 71.5864 83.1411 71.773C83.3907 72.2037 83.6375 72.6315 83.8843 73.0622C84.0852 73.4067 84.286 73.7513 84.484 74.0987C84.6361 74.3629 84.7882 74.627 84.9403 74.8912C84.9489 74.9084 84.9661 74.9199 84.9804 74.9342C84.9862 74.917 84.9919 74.8998 84.9919 74.8797C84.9948 74.8596 84.9919 74.8423 84.9919 74.8222C84.9948 74.337 84.9948 73.8432 84.9948 73.3493Z" fill="#295097"/>
<path d="M86.467 78.4543C86.4641 78.4543 86.4641 78.4514 86.4641 78.4485C86.3206 78.1987 86.1743 77.9489 86.0308 77.6991C85.8644 77.4063 85.6979 77.1105 85.5286 76.8177C85.5143 76.7947 85.4856 76.7804 85.4655 76.7603C85.4598 76.7861 85.4512 76.8148 85.4512 76.8406C85.4512 77.2857 85.4512 77.7307 85.4512 78.1758C85.4512 78.6179 85.4512 79.0601 85.4512 79.5023C85.4512 79.5224 85.4512 79.5453 85.4512 79.5654C85.4569 79.6085 85.4741 79.6229 85.5114 79.5913C85.6721 79.4506 85.8443 79.3185 85.9935 79.1635C86.1599 78.9912 86.3063 78.7988 86.4584 78.6151C86.4985 78.5663 86.5531 78.5117 86.467 78.4543Z" fill="#295097"/>
<path opacity="0.36" d="M86.467 78.4543C86.4641 78.4543 86.4641 78.4514 86.4641 78.4485C86.3206 78.1987 86.1743 77.9489 86.0308 77.6991C85.8644 77.4063 85.6979 77.1105 85.5286 76.8177C85.5143 76.7947 85.4856 76.7804 85.4655 76.7603C85.4598 76.7861 85.4512 76.8148 85.4512 76.8406C85.4512 77.2857 85.4512 77.7307 85.4512 78.1758C85.4512 78.6179 85.4512 79.0601 85.4512 79.5023C85.4512 79.5224 85.4512 79.5453 85.4512 79.5654C85.4569 79.6085 85.4741 79.6229 85.5114 79.5913C85.6721 79.4506 85.8443 79.3185 85.9935 79.1635C86.1599 78.9912 86.3063 78.7988 86.4584 78.6151C86.4985 78.5663 86.5531 78.5117 86.467 78.4543Z" fill="#295097"/>
<path d="M86.3119 73.5218C86.3693 73.4213 86.4238 73.318 86.4898 73.2261C86.5128 73.1945 86.5242 73.1802 86.4984 73.1486C86.3664 72.9849 86.2488 72.8126 86.1053 72.6576C85.9561 72.4939 85.7868 72.3504 85.6232 72.2011C85.5859 72.1666 85.5429 72.1379 85.5027 72.1063C85.474 72.0834 85.4539 72.092 85.4482 72.1264C85.4453 72.1494 85.4453 72.1752 85.4453 72.1982C85.4453 72.6375 85.4453 73.0797 85.4453 73.519C85.4453 73.5506 85.4453 73.5821 85.4453 73.6109C85.4453 74.0329 85.4453 74.4521 85.4453 74.8742C85.4453 74.8972 85.4568 74.9201 85.4654 74.9431C85.4797 74.9259 85.4998 74.9144 85.5113 74.8943C85.5802 74.7766 85.649 74.6589 85.7179 74.5383C85.9188 74.1995 86.1168 73.8606 86.3119 73.5218Z" fill="#295097"/>
<path opacity="0.36" d="M86.3119 73.5218C86.3693 73.4213 86.4238 73.318 86.4898 73.2261C86.5128 73.1945 86.5242 73.1802 86.4984 73.1486C86.3664 72.9849 86.2488 72.8126 86.1053 72.6576C85.9561 72.4939 85.7868 72.3504 85.6232 72.2011C85.5859 72.1666 85.5429 72.1379 85.5027 72.1063C85.474 72.0834 85.4539 72.092 85.4482 72.1264C85.4453 72.1494 85.4453 72.1752 85.4453 72.1982C85.4453 72.6375 85.4453 73.0797 85.4453 73.519C85.4453 73.5506 85.4453 73.5821 85.4453 73.6109C85.4453 74.0329 85.4453 74.4521 85.4453 74.8742C85.4453 74.8972 85.4568 74.9201 85.4654 74.9431C85.4797 74.9259 85.4998 74.9144 85.5113 74.8943C85.5802 74.7766 85.649 74.6589 85.7179 74.5383C85.9188 74.1995 86.1168 73.8606 86.3119 73.5218Z" fill="#295097"/>
<path d="M86.1514 74.7044C86.0682 74.8479 85.9878 74.9915 85.9075 75.135C85.8989 75.1494 85.8989 75.1666 85.896 75.1839C85.9132 75.181 85.9333 75.181 85.9476 75.1724C86.1198 75.0747 86.292 74.9743 86.4613 74.8766C86.6765 74.7532 86.8917 74.6297 87.104 74.5062C87.1213 74.4948 87.1356 74.4747 87.1471 74.4603C87.1414 74.4402 87.1385 74.4287 87.1327 74.4172C87.0897 74.2995 87.0467 74.1818 87.0007 74.0669C86.9434 73.9291 86.8802 73.7942 86.8171 73.6592C86.8056 73.6334 86.7884 73.6047 86.7568 73.6592C86.6679 73.82 86.5703 73.9779 86.4785 74.1359C86.3695 74.3254 86.2604 74.5149 86.1514 74.7044Z" fill="#295097"/>
<path opacity="0.36" d="M86.1514 74.7044C86.0682 74.8479 85.9878 74.9915 85.9075 75.135C85.8989 75.1494 85.8989 75.1666 85.896 75.1839C85.9132 75.181 85.9333 75.181 85.9476 75.1724C86.1198 75.0747 86.292 74.9743 86.4613 74.8766C86.6765 74.7532 86.8917 74.6297 87.104 74.5062C87.1213 74.4948 87.1356 74.4747 87.1471 74.4603C87.1414 74.4402 87.1385 74.4287 87.1327 74.4172C87.0897 74.2995 87.0467 74.1818 87.0007 74.0669C86.9434 73.9291 86.8802 73.7942 86.8171 73.6592C86.8056 73.6334 86.7884 73.6047 86.7568 73.6592C86.6679 73.82 86.5703 73.9779 86.4785 74.1359C86.3695 74.3254 86.2604 74.5149 86.1514 74.7044Z" fill="#295097"/>
<path d="M86.8945 77.8714C86.9777 77.6733 87.0581 77.4723 87.1384 77.2713C87.1442 77.2541 87.1269 77.2168 87.1097 77.2024C87.0667 77.1679 87.0179 77.145 86.972 77.1163C86.7769 77.0043 86.5846 76.8923 86.3895 76.7803C86.2403 76.6942 86.0911 76.6109 85.939 76.5248C85.9275 76.519 85.9103 76.5219 85.8931 76.519C85.8959 76.5305 85.8959 76.5449 85.9017 76.5564C85.9361 76.6195 85.9705 76.6798 86.005 76.743C86.1743 77.0387 86.3436 77.3316 86.5157 77.6273C86.6018 77.7795 86.6908 77.9288 86.7883 78.0982C86.8285 78.0121 86.8658 77.9432 86.8945 77.8714Z" fill="#295097"/>
<path opacity="0.36" d="M86.8945 77.8714C86.9777 77.6733 87.0581 77.4723 87.1384 77.2713C87.1442 77.2541 87.1269 77.2168 87.1097 77.2024C87.0667 77.1679 87.0179 77.145 86.972 77.1163C86.7769 77.0043 86.5846 76.8923 86.3895 76.7803C86.2403 76.6942 86.0911 76.6109 85.939 76.5248C85.9275 76.519 85.9103 76.5219 85.8931 76.519C85.8959 76.5305 85.8959 76.5449 85.9017 76.5564C85.9361 76.6195 85.9705 76.6798 86.005 76.743C86.1743 77.0387 86.3436 77.3316 86.5157 77.6273C86.6018 77.7795 86.6908 77.9288 86.7883 78.0982C86.8285 78.0121 86.8658 77.9432 86.8945 77.8714Z" fill="#295097"/>
<path d="M86.1882 75.5574C86.1653 75.5718 86.1481 75.5947 86.1309 75.612C86.1567 75.6177 86.1796 75.6234 86.2055 75.6234C86.3805 75.6234 86.5555 75.6234 86.7277 75.6234C86.9028 75.6234 87.0778 75.6234 87.25 75.6234C87.3447 75.6234 87.3504 75.6234 87.3418 75.5287C87.3274 75.3535 87.3045 75.1813 87.2815 75.0061C87.2758 74.9544 87.2442 74.943 87.1926 74.9745C86.963 75.1066 86.7335 75.2387 86.5068 75.3736C86.4006 75.4368 86.2944 75.4942 86.1882 75.5574Z" fill="#295097"/>
<path opacity="0.36" d="M86.1882 75.5574C86.1653 75.5718 86.1481 75.5947 86.1309 75.612C86.1567 75.6177 86.1796 75.6234 86.2055 75.6234C86.3805 75.6234 86.5555 75.6234 86.7277 75.6234C86.9028 75.6234 87.0778 75.6234 87.25 75.6234C87.3447 75.6234 87.3504 75.6234 87.3418 75.5287C87.3274 75.3535 87.3045 75.1813 87.2815 75.0061C87.2758 74.9544 87.2442 74.943 87.1926 74.9745C86.963 75.1066 86.7335 75.2387 86.5068 75.3736C86.4006 75.4368 86.2944 75.4942 86.1882 75.5574Z" fill="#295097"/>
<path d="M87.2703 76.0742C87.0952 76.0771 86.9202 76.0742 86.748 76.0742C86.596 76.0742 86.441 76.0742 86.2889 76.0742C86.2516 76.0742 86.2114 76.0742 86.1741 76.0771C86.1627 76.0771 86.1541 76.0857 86.1426 76.0914C86.1483 76.1001 86.1512 76.1115 86.1598 76.1202C86.1684 76.1288 86.1828 76.1374 86.1942 76.1431C86.3234 76.2178 86.4496 76.2953 86.5787 76.37C86.7882 76.4905 86.9948 76.6111 87.2043 76.7317C87.2502 76.7576 87.2789 76.7403 87.2846 76.6915C87.2904 76.6571 87.2875 76.6198 87.2904 76.5853C87.3076 76.4417 87.3248 76.2982 87.3449 76.1575C87.3535 76.0972 87.3305 76.0742 87.2703 76.0742Z" fill="#295097"/>
<path opacity="0.36" d="M87.2703 76.0742C87.0952 76.0771 86.9202 76.0742 86.748 76.0742C86.596 76.0742 86.441 76.0742 86.2889 76.0742C86.2516 76.0742 86.2114 76.0742 86.1741 76.0771C86.1627 76.0771 86.1541 76.0857 86.1426 76.0914C86.1483 76.1001 86.1512 76.1115 86.1598 76.1202C86.1684 76.1288 86.1828 76.1374 86.1942 76.1431C86.3234 76.2178 86.4496 76.2953 86.5787 76.37C86.7882 76.4905 86.9948 76.6111 87.2043 76.7317C87.2502 76.7576 87.2789 76.7403 87.2846 76.6915C87.2904 76.6571 87.2875 76.6198 87.2904 76.5853C87.3076 76.4417 87.3248 76.2982 87.3449 76.1575C87.3535 76.0972 87.3305 76.0742 87.2703 76.0742Z" fill="#295097"/>
<path d="M81.1332 80.3095C81.0615 80.2836 80.9926 80.2578 80.9209 80.2319C81.0099 80.2664 81.1017 80.3008 81.1935 80.3296C81.1734 80.3238 81.1533 80.3181 81.1332 80.3095Z" fill="#23A2D9"/>
<path d="M81.7873 80.479C81.7213 80.4675 81.6524 80.4531 81.5864 80.4417C81.7012 80.4675 81.8189 80.4905 81.9365 80.5077C81.8906 80.4991 81.8389 80.4905 81.7873 80.479Z" fill="#23A2D9"/>
<path d="M85.98 72.5257C85.8968 72.4424 85.8136 72.3649 85.7246 72.2874C85.8107 72.3677 85.8968 72.4453 85.98 72.5257Z" fill="#23A2D9"/>
<path d="M83.1221 71.1704C83.1824 71.1762 83.2428 71.1848 83.3032 71.1934C83.2428 71.1819 83.1824 71.1762 83.1221 71.1704Z" fill="#23A2D9"/>
<path d="M83.0532 80.5451C83.0992 80.5423 83.1481 80.5365 83.1941 80.5308C83.1826 80.5308 83.174 80.5336 83.1625 80.5336C83.128 80.5365 83.0906 80.5423 83.0532 80.5451Z" fill="#23A2D9"/>
<path d="M87.119 74.3746C87.0473 74.1564 86.9583 73.9468 86.8579 73.7429C86.9067 73.8492 86.9555 73.9583 87.0014 74.0674C87.0444 74.1679 87.0817 74.2712 87.119 74.3746Z" fill="#23A2D9"/>
<path d="M87.3452 75.5491C87.3366 75.4027 87.3194 75.262 87.2993 75.1184C87.3165 75.2562 87.3338 75.394 87.3452 75.5319C87.3452 75.5376 87.3452 75.5434 87.3452 75.5491Z" fill="#23A2D9"/>
<path d="M87.2881 76.6573C87.3168 76.4851 87.3369 76.3099 87.3483 76.1348C87.3483 76.1405 87.3483 76.1463 87.3455 76.1549C87.3254 76.2984 87.3082 76.442 87.291 76.5827C87.2881 76.6085 87.2881 76.6344 87.2881 76.6573Z" fill="#23A2D9"/>
<path d="M84.9581 79.9592C85.5579 79.6204 86.0772 79.1553 86.4761 78.5982C86.4704 78.604 86.4646 78.6097 86.4589 78.6183C86.3068 78.8021 86.1605 78.9945 85.994 79.1668C85.8448 79.3218 85.6726 79.451 85.512 79.5946C85.4747 79.629 85.4574 79.6118 85.4517 79.5687C85.4488 79.5486 85.4517 79.5257 85.4517 79.5056C85.4517 79.0634 85.4517 78.6212 85.4517 78.179C85.4517 77.734 85.4517 77.289 85.4517 76.8439C85.4517 76.8181 85.4603 76.7894 85.466 76.7635C85.489 76.7836 85.5177 76.798 85.5292 76.821C85.6985 77.1138 85.862 77.4096 86.0313 77.7024C86.1748 77.9522 86.3183 78.202 86.4646 78.4518C86.4646 78.4547 86.4675 78.4576 86.4675 78.4576C86.5191 78.492 86.522 78.5265 86.5048 78.5581C86.6081 78.4116 86.7028 78.2566 86.7889 78.0987C86.6913 77.9293 86.6024 77.7799 86.5163 77.6278C86.347 77.332 86.1777 77.0392 86.0055 76.7434C85.9711 76.6831 85.9366 76.62 85.9022 76.5568C85.8965 76.5453 85.8965 76.531 85.8936 76.5195C85.9079 76.5195 85.9252 76.5166 85.9395 76.5252C86.0916 76.6085 86.2408 76.6946 86.39 76.7808C86.5851 76.8927 86.7774 77.0047 86.9725 77.1167C87.0184 77.1454 87.0701 77.1684 87.1103 77.2028C87.1275 77.2172 87.1447 77.2545 87.139 77.2717C87.0615 77.4727 86.9783 77.6737 86.895 77.8718C86.8664 77.9436 86.829 78.0125 86.7917 78.0929C87.0213 77.6708 87.1849 77.2086 87.2767 76.7233C87.2652 76.7492 87.2394 76.752 87.205 76.7319C86.9955 76.6114 86.786 76.4908 86.5794 76.3702C86.4503 76.2955 86.324 76.218 86.1949 76.1433C86.1834 76.1376 86.1691 76.129 86.1605 76.1204C86.1519 76.1118 86.149 76.1031 86.1432 76.0917C86.1547 76.0859 86.1633 76.0802 86.1748 76.0773C86.2121 76.0744 86.2523 76.0744 86.2896 76.0744C86.4417 76.0744 86.5966 76.0744 86.7487 76.0744C86.9237 76.0744 87.0988 76.0773 87.2709 76.0744C87.3255 76.0744 87.3484 76.0888 87.3456 76.1319C87.3513 76.04 87.3542 75.9452 87.3542 75.8505C87.3542 75.7529 87.3513 75.6552 87.3456 75.5605C87.3484 75.6208 87.3341 75.6237 87.2509 75.6237C87.0758 75.6237 86.9008 75.6237 86.7286 75.6237C86.5536 75.6237 86.3785 75.6237 86.2064 75.6237C86.1805 75.6237 86.1576 75.615 86.1318 75.6122C86.1519 75.5949 86.1662 75.5691 86.1892 75.5576C86.2953 75.4944 86.4015 75.4342 86.5105 75.3739C86.7401 75.2418 86.9697 75.1068 87.1963 74.9748C87.2336 74.9547 87.2595 74.9518 87.2738 74.9748C87.2423 74.7996 87.1992 74.6302 87.1476 74.4608C87.1361 74.4752 87.1217 74.4924 87.1045 74.5039C86.8893 74.6273 86.6741 74.7508 86.4618 74.8743C86.2896 74.9719 86.1203 75.0724 85.9481 75.17C85.9338 75.1786 85.9137 75.1786 85.8965 75.1815C85.8993 75.1643 85.8993 75.147 85.9079 75.1327C85.9883 74.9891 86.0715 74.8455 86.1519 74.702C86.2609 74.5125 86.3699 74.323 86.4818 74.1335C86.5737 73.9756 86.6712 73.8176 86.7602 73.6569C86.7774 73.6253 86.7917 73.6224 86.8004 73.631C86.6311 73.3152 86.4273 73.0223 86.1949 72.7553C86.3011 72.8816 86.3986 73.0166 86.5019 73.1458C86.5278 73.1774 86.5163 73.1917 86.4933 73.2233C86.4273 73.3181 86.3728 73.4214 86.3154 73.519C86.1174 73.8578 85.9223 74.1967 85.7243 74.5355C85.6554 74.6532 85.5866 74.7738 85.5177 74.8915C85.5062 74.9087 85.489 74.9231 85.4718 74.9403C85.466 74.9173 85.4517 74.8944 85.4517 74.8714C85.4517 74.4493 85.4517 74.0301 85.4517 73.608C85.4517 73.5765 85.4517 73.5449 85.4517 73.5162C85.4517 73.0769 85.4517 72.6347 85.4517 72.1954C85.4517 72.1724 85.4488 72.1466 85.4546 72.1236C85.4574 72.1007 85.4689 72.0892 85.4833 72.092C85.3197 71.9686 85.1504 71.8566 84.9725 71.7561C84.9868 71.7733 84.9954 71.8049 84.9954 71.8279C84.9983 72.1437 84.9983 72.4596 84.9983 72.7754C84.9983 72.9678 84.9983 73.1573 84.9983 73.3496C84.9983 73.8435 84.9983 74.3345 84.9983 74.8283C84.9983 74.8484 85.0012 74.8656 84.9983 74.8857C84.9954 74.903 84.9897 74.9202 84.9868 74.9403C84.9725 74.9259 84.9553 74.9145 84.9467 74.8972C84.7946 74.6331 84.6425 74.3689 84.4904 74.1048C84.2924 73.7602 84.0887 73.4157 83.8907 73.0683C83.6411 72.6376 83.3943 72.2098 83.1475 71.7791C83.0413 71.5924 82.9323 71.4087 82.8232 71.2221C82.8118 71.202 82.806 71.1761 82.7974 71.1503C82.8003 71.1503 82.806 71.1474 82.8089 71.1474C82.7572 71.1445 82.7056 71.1445 82.6539 71.1445C82.5162 71.1445 82.3813 71.1503 82.2465 71.1618C82.2637 71.1761 82.2838 71.1905 82.2924 71.2077C82.4043 71.3972 82.5105 71.5896 82.6195 71.7791C82.7917 72.0806 82.9667 72.3792 83.1418 72.6806C83.3225 72.9936 83.5033 73.3066 83.6841 73.6195C83.9337 74.0502 84.1805 74.4809 84.4302 74.9087C84.4675 74.9719 84.5076 75.0322 84.5449 75.0953C84.5535 75.1126 84.5535 75.1327 84.5593 75.1528C84.5449 75.1499 84.5306 75.1499 84.5191 75.147L85.7272 75.8419L84.5507 76.5223C84.5564 76.5195 84.565 76.5166 84.5708 76.5166C84.5679 76.531 84.5708 76.5482 84.565 76.5597C84.3498 76.9301 84.1346 77.2976 83.9194 77.668C83.753 77.9551 83.5894 78.248 83.423 78.5351C83.1963 78.9256 82.9696 79.3161 82.7429 79.7065C82.6138 79.9305 82.4875 80.1545 82.3613 80.3784C82.3383 80.4186 82.3211 80.4588 82.2924 80.4933C82.278 80.5134 82.2494 80.5248 82.2235 80.5306C82.2063 80.5335 82.1891 80.5335 82.1719 80.5335C82.3297 80.5507 82.4933 80.5593 82.6568 80.5593C82.7085 80.5593 82.7601 80.5593 82.8089 80.5564C82.7888 80.5507 82.7946 80.5306 82.8175 80.4875C82.9352 80.2808 83.0557 80.0741 83.1762 79.8673C83.3082 79.6376 83.4402 79.4079 83.5722 79.1811C83.7644 78.8509 83.9596 78.5207 84.1518 78.1877C84.2838 77.9608 84.4101 77.7311 84.5392 77.5043C84.6741 77.2717 84.8089 77.0363 84.9438 76.8037C84.9524 76.7865 84.9696 76.7721 84.984 76.7578C84.9897 76.7808 85.0012 76.8009 85.0012 76.8238C85.0012 77.3206 85.0012 77.8201 85.0012 78.3169C85.0012 78.3284 85.0012 78.3398 85.0012 78.3513C85.0012 78.848 84.9983 79.3476 85.0041 79.8444C84.9983 79.896 84.9868 79.9334 84.9581 79.9592Z" fill="#28AAE1"/>
<path d="M84.866 80.0081C84.7226 80.077 84.582 80.1487 84.4385 80.209C84.5848 80.1487 84.7283 80.0827 84.866 80.0081Z" fill="#23A2D9"/>
<path d="M83.6641 80.4532C83.8592 80.4101 84.0514 80.3556 84.238 80.2896C84.126 80.3269 84.0113 80.3613 83.8994 80.3929C83.819 80.413 83.7415 80.4331 83.6641 80.4532Z" fill="#23A2D9"/>
<path d="M5.37885 80.1184H3.89502L3.62005 73.7629L2.41119 80.1184H1L2.58759 72.5125H4.81853L5.05199 77.8408L7.6461 72.5125H9.90297L8.31019 80.1184H6.88343L8.38283 73.8096L5.37885 80.1184Z" fill="white"/>
<path d="M14.6261 77.8252H10.8906C10.8871 77.884 10.8854 77.929 10.8854 77.9601C10.8854 78.3268 10.9892 78.6225 11.1967 78.8473C11.4077 79.0721 11.6636 79.1846 11.9646 79.1846C12.4592 79.1846 12.8448 78.9286 13.1215 78.4167L14.4549 78.6398C14.1955 79.1759 13.8479 79.5789 13.4121 79.8487C12.9797 80.115 12.4938 80.2481 11.9542 80.2481C11.214 80.2481 10.6122 80.0147 10.1487 79.5477C9.68521 79.0773 9.45347 78.4565 9.45347 77.6852C9.45347 76.9311 9.66273 76.2601 10.0812 75.6721C10.6519 74.8766 11.4665 74.4789 12.5249 74.4789C13.1994 74.4789 13.7355 74.6881 14.1332 75.1066C14.531 75.5217 14.7299 76.1045 14.7299 76.8551C14.7299 77.2148 14.6953 77.5382 14.6261 77.8252ZM13.3706 76.9173C13.374 76.8516 13.3758 76.8014 13.3758 76.7669C13.3758 76.3587 13.2841 76.0526 13.1008 75.8485C12.9175 75.6445 12.6719 75.5424 12.3641 75.5424C12.0562 75.5424 11.7795 75.6583 11.5339 75.89C11.2918 76.1218 11.1275 76.4642 11.0411 76.9173H13.3706Z" fill="white"/>
<path d="M15.6968 74.6086H17.0976L16.9575 75.2778C17.504 74.7452 18.0781 74.4789 18.68 74.4789C19.095 74.4789 19.415 74.5653 19.6398 74.7383C19.8646 74.9112 20.0082 75.1499 20.0704 75.4542C20.2607 75.1775 20.5339 74.9458 20.8902 74.759C21.2464 74.5722 21.6165 74.4789 22.0004 74.4789C22.4397 74.4789 22.7821 74.5965 23.0277 74.8316C23.2733 75.0668 23.3961 75.3781 23.3961 75.7655C23.3961 75.9558 23.3476 76.2843 23.2508 76.7513L22.5452 80.1184H21.0562L21.7618 76.7513C21.8482 76.3293 21.8915 76.0907 21.8915 76.0353C21.8915 75.8831 21.8448 75.7638 21.7514 75.6773C21.6615 75.5874 21.5249 75.5424 21.3415 75.5424C20.9714 75.5424 20.6411 75.7379 20.3506 76.1287C20.1396 76.4089 19.9597 76.9052 19.811 77.6177L19.287 80.1184H17.798L18.4932 76.7876C18.5728 76.4037 18.6125 76.1546 18.6125 76.0405C18.6125 75.8952 18.5624 75.7759 18.4621 75.6825C18.3652 75.5891 18.2303 75.5424 18.0574 75.5424C17.8948 75.5424 17.7271 75.5909 17.5541 75.6877C17.3812 75.7846 17.229 75.9177 17.0976 76.0872C16.9696 76.2567 16.8589 76.4746 16.7655 76.7409C16.724 76.8654 16.6566 77.1473 16.5632 77.5866L16.034 80.1184H14.545L15.6968 74.6086Z" fill="white"/>
<path d="M23.4187 80.1184L25.0063 72.5125H26.5005L25.9661 75.0547C26.2393 74.8472 26.4936 74.7002 26.7288 74.6137C26.9674 74.5238 27.2268 74.4789 27.507 74.4789C28.0881 74.4789 28.5533 74.6743 28.9026 75.0651C29.252 75.4525 29.4266 76.018 29.4266 76.7617C29.4266 77.2632 29.3436 77.7509 29.1776 78.2247C29.015 78.6951 28.7954 79.0791 28.5187 79.3765C28.2455 79.6705 27.9566 79.8902 27.6523 80.0354C27.3514 80.1772 27.0349 80.2481 26.7028 80.2481C25.9142 80.2481 25.3349 79.9023 24.9648 79.2105L24.7728 80.1184H23.4187ZM25.4265 77.8719C25.4265 78.242 25.5303 78.543 25.7378 78.7747C25.9488 79.0064 26.1961 79.1223 26.4797 79.1223C26.7288 79.1223 26.9657 79.0324 27.1905 78.8525C27.4188 78.6727 27.6073 78.3856 27.756 77.9913C27.9082 77.597 27.9843 77.1992 27.9843 76.798C27.9843 76.4071 27.8823 76.101 27.6782 75.8797C27.4776 75.6548 27.2338 75.5424 26.9467 75.5424C26.5731 75.5424 26.2515 75.7154 25.9817 76.0613C25.6116 76.5351 25.4265 77.1387 25.4265 77.8719Z" fill="white"/>
<path d="M34.736 77.8252H31.0005C30.9971 77.884 30.9953 77.929 30.9953 77.9601C30.9953 78.3268 31.0991 78.6225 31.3066 78.8473C31.5176 79.0721 31.7736 79.1846 32.0745 79.1846C32.5691 79.1846 32.9548 78.9286 33.2315 78.4167L34.5648 78.6398C34.3054 79.1759 33.9578 79.5789 33.522 79.8487C33.0897 80.115 32.6037 80.2481 32.0641 80.2481C31.3239 80.2481 30.7221 80.0147 30.2586 79.5477C29.7951 79.0773 29.5634 78.4565 29.5634 77.6852C29.5634 76.9311 29.7727 76.2601 30.1912 75.6721C30.7619 74.8766 31.5764 74.4789 32.6348 74.4789C33.3093 74.4789 33.8454 74.6881 34.2432 75.1066C34.6409 75.5217 34.8398 76.1045 34.8398 76.8551C34.8398 77.2148 34.8052 77.5382 34.736 77.8252ZM33.4805 76.9173C33.484 76.8516 33.4857 76.8014 33.4857 76.7669C33.4857 76.3587 33.394 76.0526 33.2107 75.8485C33.0274 75.6445 32.7818 75.5424 32.474 75.5424C32.1662 75.5424 31.8894 75.6583 31.6439 75.89C31.4018 76.1218 31.2375 76.4642 31.151 76.9173H33.4805Z" fill="white"/>
<path d="M35.7704 74.6086H37.1608L36.9377 75.6773C37.4565 74.8783 38.0186 74.4789 38.6239 74.4789C38.8383 74.4789 39.0683 74.5325 39.3139 74.6397L38.7432 75.8589C38.6083 75.8105 38.4648 75.7863 38.3126 75.7863C38.0566 75.7863 37.7955 75.8831 37.5292 76.0768C37.2663 76.2705 37.0605 76.5299 36.9118 76.8551C36.7631 77.1767 36.6161 77.6886 36.4708 78.3908L36.1076 80.1184H34.6186L35.7704 74.6086Z" fill="white"/>
<path d="M40.8482 77.8304C40.8482 76.8101 41.1353 75.9973 41.7094 75.392C42.287 74.7832 43.0445 74.4789 43.9819 74.4789C44.7947 74.4789 45.4294 74.7037 45.8859 75.1533C46.3425 75.5995 46.5708 76.2013 46.5708 76.9588C46.5708 77.8512 46.2854 78.6225 45.7147 79.2728C45.144 79.923 44.3796 80.2481 43.4215 80.2481C42.9027 80.2481 42.4427 80.1444 42.0415 79.9369C41.6402 79.7293 41.3411 79.4353 41.1439 79.0549C40.9468 78.6744 40.8482 78.2662 40.8482 77.8304ZM45.0921 76.7669C45.0921 76.4141 44.9884 76.1322 44.7808 75.9212C44.5768 75.7067 44.3122 75.5995 43.987 75.5995C43.6654 75.5995 43.38 75.6998 43.131 75.9004C42.882 76.0976 42.6883 76.3864 42.5499 76.7669C42.4116 77.1439 42.3424 77.4915 42.3424 77.8097C42.3424 78.204 42.4496 78.517 42.6641 78.7488C42.8785 78.9805 43.1483 79.0964 43.4734 79.0964C43.8816 79.0964 44.224 78.9217 44.5007 78.5724C44.895 78.0777 45.0921 77.4759 45.0921 76.7669Z" fill="white"/>
<path d="M50.3808 74.6086L50.1525 75.6981H49.0993L48.1758 80.1184H46.6868L47.6103 75.6981H46.7802L47.0085 74.6086H47.8386L47.9579 74.043C48.0547 73.5796 48.1464 73.2665 48.2329 73.104C48.3505 72.8826 48.5251 72.7079 48.7569 72.58C48.9921 72.4485 49.2982 72.3828 49.6752 72.3828C50.1318 72.3828 50.6125 72.4658 51.1175 72.6318L50.827 73.6954C50.4707 73.5744 50.1819 73.5138 49.9606 73.5138C49.7911 73.5138 49.6648 73.5675 49.5818 73.6747C49.5265 73.7439 49.4694 73.9254 49.4106 74.2194L49.3276 74.6086H50.3808Z" fill="white"/>
<path d="M55.6817 80.1184H54.0111L52.6466 72.5125H54.2082L55.1733 78.2662L58.3225 72.5125H59.8738L55.6817 80.1184Z" fill="white"/>
<path d="M58.314 80.1184L59.9068 72.5125H61.4684L59.8808 80.1184H58.314Z" fill="white"/>
<path d="M65.128 80.1184H63.6442L63.3692 73.7629L62.1603 80.1184H60.7491L62.3367 72.5125H64.5677L64.8011 77.8408L67.3952 72.5125H69.6521L68.0593 80.1184H66.6326L68.132 73.8096L65.128 80.1184Z" fill="white"/>
<path d="M74.5309 77.3791L76.1081 77.6177C75.8003 78.472 75.3385 79.1258 74.7229 79.5789C74.1072 80.0285 73.386 80.2533 72.5594 80.2533C71.629 80.2533 70.9009 79.9732 70.3751 79.4128C69.8529 78.8525 69.5917 78.0397 69.5917 76.9744C69.5917 76.1097 69.7664 75.3193 70.1157 74.6034C70.4685 73.8839 70.9562 73.334 71.5788 72.9535C72.2014 72.573 72.8793 72.3828 73.6126 72.3828C74.4358 72.3828 75.1016 72.6042 75.61 73.0469C76.1185 73.4862 76.4177 74.0863 76.5076 74.8472L75.0082 74.9925C74.9252 74.5498 74.7644 74.2298 74.5257 74.0327C74.2905 73.8321 73.9758 73.7317 73.5815 73.7317C73.1491 73.7317 72.7444 73.8632 72.3674 74.1261C71.9939 74.3889 71.6947 74.8005 71.4698 75.3608C71.245 75.9177 71.1326 76.4746 71.1326 77.0315C71.1326 77.6402 71.2779 78.1106 71.5684 78.4426C71.8624 78.7747 72.2273 78.9407 72.6631 78.9407C73.0678 78.9407 73.4379 78.8093 73.7734 78.5464C74.1124 78.2835 74.3649 77.8944 74.5309 77.3791Z" fill="white"/>
<path fill-rule="evenodd" clip-rule="evenodd" d="M100.468 34.2846H96.7054C95.9083 34.2846 95.28 34.216 94.8205 34.0787C94.3517 33.9462 93.8992 33.7001 93.4632 33.3405C92.9287 32.8862 92.5301 32.3159 92.2676 31.6297C92.0003 30.9388 91.8667 30.1177 91.8667 29.1665C91.8667 27.3066 92.2652 25.9271 93.0623 25.028C93.85 24.1335 95.0831 23.6863 96.7616 23.6863H100.468V25.8088H96.8038C96.3818 25.8088 96.0325 25.8656 95.7559 25.9792C95.4793 26.1117 95.2495 26.3081 95.0667 26.5684C94.7104 27.0889 94.5322 27.9857 94.5322 29.2588C94.5322 30.3425 94.701 31.0926 95.0386 31.509C95.3621 31.9255 95.9505 32.1337 96.8038 32.1337H100.468V34.2846ZM111.503 34.2917H108.739L107.817 31.8569H103.71L102.817 34.2917H100.166L104.561 23.6863H107.065L111.503 34.2917ZM106.98 29.6634L105.729 26.4335L104.533 29.6634H106.98ZM107.803 21.4858C107.803 21.836 107.717 22.1081 107.543 22.3021C107.356 22.5009 107.095 22.6002 106.762 22.6002L106.235 22.6073C106.099 22.6073 106.01 22.6263 105.968 22.6641C105.926 22.7115 105.904 22.8085 105.904 22.9552V23.1752H104.934V22.8629C104.934 22.4796 105.028 22.198 105.215 22.0181C105.314 21.9282 105.438 21.8572 105.588 21.8052C105.738 21.7626 105.911 21.7413 106.108 21.7413H106.467C106.612 21.7413 106.706 21.7224 106.748 21.6845C106.786 21.6514 106.805 21.5828 106.805 21.4787C106.805 21.3698 106.784 21.2941 106.741 21.2515C106.699 21.2136 106.608 21.1947 106.467 21.1947L104.871 21.2018V20.3571H106.601C106.821 20.3571 106.98 20.3665 107.079 20.3855C107.196 20.4044 107.292 20.4423 107.367 20.499C107.517 20.589 107.63 20.7215 107.705 20.8966C107.771 21.0622 107.803 21.2586 107.803 21.4858ZM120.941 34.2917H118.205L114.168 27.0653L114.253 34.2917H111.749V23.6863H114.703L118.507 30.5223L118.423 23.6863H120.941V34.2917ZM131.596 34.2846H126.87C126.448 34.2846 126.075 34.2657 125.751 34.2278C125.414 34.19 125.125 34.1355 124.886 34.0645C124.432 33.9131 123.993 33.6718 123.571 33.3405C123.037 32.8862 122.638 32.3159 122.376 31.6297C122.108 30.9388 121.975 30.1177 121.975 29.1665C121.975 27.3066 122.378 25.9271 123.184 25.028C123.981 24.1335 125.21 23.6863 126.87 23.6863H131.596V25.8088H126.87C126.124 25.8088 125.573 26.0585 125.217 26.5577C124.861 27.057 124.682 27.8935 124.682 29.0671C124.682 30.1319 124.855 30.8997 125.199 31.3706C125.544 31.8415 126.101 32.0769 126.87 32.0769H129.071V30.0254H126.251V27.8603H131.596V34.2846ZM146.379 29.1665C146.379 29.6445 146.346 30.0822 146.281 30.4797C146.215 30.8773 146.114 31.2606 145.978 31.6297C145.725 32.3159 145.319 32.8862 144.761 33.3405C144.349 33.6623 143.899 33.9036 143.411 34.0645C143.172 34.1355 142.898 34.19 142.588 34.2278C142.284 34.2657 141.92 34.2846 141.498 34.2846H136.688V29.635H135.633V28.1798H136.688V23.6863H141.449C143.123 23.6863 144.363 24.1335 145.169 25.028C145.976 25.9177 146.379 27.2972 146.379 29.1665ZM143.742 28.9819C143.742 27.7515 143.581 26.9198 143.26 26.4867C142.939 26.0537 142.34 25.8372 141.463 25.8372H139.149V28.1798H141.512V29.635H139.149V32.1337H141.463C142.33 32.1337 142.926 31.916 143.249 31.4806C143.578 31.0547 143.742 30.2218 143.742 28.9819ZM153.053 23.09H151.661L148.834 20.7546H151.45L153.053 23.09ZM157.301 34.2917H154.537L153.616 31.8569H149.509L148.616 34.2917H145.964L150.36 23.6863H152.863L157.301 34.2917ZM152.779 29.6634L151.527 26.4335L150.332 29.6634H152.779ZM170.312 34.2917H167.576L163.539 27.0653L163.624 34.2917H161.12V23.6863H164.074L167.879 30.5223L167.794 23.6863H170.312V34.2917ZM181.832 34.2917H179.068L178.147 31.8569H174.04L173.146 34.2917H170.495L174.891 23.6863H177.394L181.832 34.2917ZM177.31 29.6634L176.058 26.4335L174.862 29.6634H177.31ZM175.073 21.1237C175.073 21.3414 175.172 21.5354 175.369 21.7058C175.566 21.8572 175.831 21.933 176.164 21.933C176.511 21.933 176.768 21.8667 176.937 21.7342C177.097 21.6017 177.204 21.3982 177.261 21.1237H178.386C178.386 21.8005 178.182 22.3139 177.774 22.6641C177.376 23.0096 176.839 23.1823 176.164 23.1823C175.465 23.1823 174.923 23.0191 174.539 22.6925C174.14 22.3612 173.941 21.8383 173.941 21.1237H175.073ZM178.963 18.625C178.916 18.9657 178.845 19.2615 178.752 19.5123C178.644 19.7726 178.522 19.9808 178.386 20.137C178.109 20.4683 177.753 20.6339 177.317 20.6339L177.092 20.6055L176.846 20.5558L175.924 20.3287L175.805 20.2932H175.692C175.566 20.2932 175.465 20.3239 175.39 20.3855C175.334 20.4139 175.275 20.5487 175.214 20.7901H174.166C174.232 20.402 174.314 20.0921 174.412 19.8602C174.497 19.6377 174.607 19.4437 174.743 19.2781C175.001 18.9705 175.336 18.8167 175.749 18.8167L176.051 18.8309L176.283 18.8735L177.176 19.1077L177.317 19.1361L177.507 19.1503C177.615 19.1314 177.697 19.0959 177.753 19.0438C177.8 19.006 177.837 18.9539 177.866 18.8876C177.884 18.8309 177.91 18.7433 177.943 18.625H178.963ZM191.27 34.2917H188.535L184.498 27.0653L184.582 34.2917H182.078V23.6863H185.032L188.837 30.5223L188.753 23.6863H191.27V34.2917ZM201.925 34.2846H197.199C196.777 34.2846 196.404 34.2657 196.081 34.2278C195.743 34.19 195.455 34.1355 195.216 34.0645C194.761 33.9131 194.323 33.6718 193.901 33.3405C193.366 32.8862 192.968 32.3159 192.705 31.6297C192.438 30.9388 192.304 30.1177 192.304 29.1665C192.304 27.3066 192.707 25.9271 193.514 25.028C194.311 24.1335 195.539 23.6863 197.199 23.6863H201.925V25.8088H197.199C196.454 25.8088 195.903 26.0585 195.546 26.5577C195.19 27.057 195.012 27.8935 195.012 29.0671C195.012 30.1319 195.184 30.8997 195.529 31.3706C195.873 31.8415 196.43 32.0769 197.199 32.0769H199.4V30.0254H196.58V27.8603H201.925V34.2846Z" fill="white"/>
<defs>
<linearGradient id="paint0_linear" x1="10.9725" y1="58.5798" x2="42.284" y2="-14.0515" gradientUnits="userSpaceOnUse">
<stop stop-color="#F58634"/>
<stop offset="0.341176" stop-color="#F9EA80"/>
<stop offset="0.631373" stop-color="#F58634"/>
<stop offset="0.988235" stop-color="#FFF212"/>
<stop offset="1" stop-color="#FAF289"/>
</linearGradient>
<linearGradient id="paint1_linear" x1="10.9725" y1="58.5798" x2="42.284" y2="-14.0515" gradientUnits="userSpaceOnUse">
<stop stop-color="#F58634"/>
<stop offset="0.341176" stop-color="#F9EA80"/>
<stop offset="0.631373" stop-color="#F58634"/>
<stop offset="0.988235" stop-color="#FFF212"/>
<stop offset="1" stop-color="#FAF289"/>
</linearGradient>
<linearGradient id="paint2_linear" x1="14.5146" y1="42.4862" x2="47.3167" y2="29.447" gradientUnits="userSpaceOnUse">
<stop stop-color="#F2AE3A"/>
<stop offset="0.478431" stop-color="#F9EA80"/>
<stop offset="0.988235" stop-color="#F2B13D"/>
<stop offset="1" stop-color="#FAF289"/>
</linearGradient>
<linearGradient id="paint3_linear" x1="48.8281" y1="15.9292" x2="54.725" y2="13.4924" gradientUnits="userSpaceOnUse">
<stop stop-color="#F2AE3A"/>
<stop offset="0.478431" stop-color="#F9EA80"/>
<stop offset="0.988235" stop-color="#F2B13D"/>
<stop offset="1" stop-color="#FAF289"/>
</linearGradient>
<linearGradient id="paint4_linear" x1="42.3662" y1="23.822" x2="48.2551" y2="21.3932" gradientUnits="userSpaceOnUse">
<stop stop-color="#F2AE3A"/>
<stop offset="0.478431" stop-color="#F9EA80"/>
<stop offset="0.988235" stop-color="#F2B13D"/>
<stop offset="1" stop-color="#FAF289"/>
</linearGradient>
<linearGradient id="paint5_linear" x1="48.8281" y1="23.822" x2="54.725" y2="21.3852" gradientUnits="userSpaceOnUse">
<stop stop-color="#F2AE3A"/>
<stop offset="0.478431" stop-color="#F9EA80"/>
<stop offset="0.988235" stop-color="#F2B13D"/>
<stop offset="1" stop-color="#FAF289"/>
</linearGradient>
<linearGradient id="paint6_linear" x1="55.3008" y1="23.822" x2="61.1977" y2="21.3852" gradientUnits="userSpaceOnUse">
<stop stop-color="#F2AE3A"/>
<stop offset="0.478431" stop-color="#F9EA80"/>
<stop offset="0.988235" stop-color="#F2B13D"/>
<stop offset="1" stop-color="#FAF289"/>
</linearGradient>
<linearGradient id="paint7_linear" x1="61.7705" y1="23.822" x2="67.6674" y2="21.3852" gradientUnits="userSpaceOnUse">
<stop stop-color="#F2AE3A"/>
<stop offset="0.478431" stop-color="#F9EA80"/>
<stop offset="0.988235" stop-color="#F2B13D"/>
<stop offset="1" stop-color="#FAF289"/>
</linearGradient>
<linearGradient id="paint8_linear" x1="48.5754" y1="39.9275" x2="58.4837" y2="30.0156" gradientUnits="userSpaceOnUse">
<stop stop-color="#F2AE3A"/>
<stop offset="0.478431" stop-color="#F9EA80"/>
<stop offset="0.988235" stop-color="#F2B13D"/>
<stop offset="1" stop-color="#FAF289"/>
</linearGradient>
<linearGradient id="paint9_linear" x1="49.1779" y1="42.3678" x2="61.9995" y2="29.5457" gradientUnits="userSpaceOnUse">
<stop stop-color="#F2AE3A"/>
<stop offset="0.478431" stop-color="#F9EA80"/>
<stop offset="0.988235" stop-color="#F2B13D"/>
<stop offset="1" stop-color="#FAF289"/>
</linearGradient>
<linearGradient id="paint10_linear" x1="48.5416" y1="45.1853" x2="63.7516" y2="29.9775" gradientUnits="userSpaceOnUse">
<stop stop-color="#F2AE3A"/>
<stop offset="0.478431" stop-color="#F9EA80"/>
<stop offset="0.988235" stop-color="#F2B13D"/>
<stop offset="1" stop-color="#FAF289"/>
</linearGradient>
<linearGradient id="paint11_linear" x1="48.1103" y1="47.4939" x2="59.4612" y2="36.1532" gradientUnits="userSpaceOnUse">
<stop stop-color="#F2AE3A"/>
<stop offset="0.478431" stop-color="#F9EA80"/>
<stop offset="0.988235" stop-color="#F2B13D"/>
<stop offset="1" stop-color="#FAF289"/>
</linearGradient>
<linearGradient id="paint12_linear" x1="46.47" y1="49.3115" x2="55.8337" y2="39.956" gradientUnits="userSpaceOnUse">
<stop stop-color="#F2AE3A"/>
<stop offset="0.478431" stop-color="#F9EA80"/>
<stop offset="0.988235" stop-color="#F2B13D"/>
<stop offset="1" stop-color="#FAF289"/>
</linearGradient>
<linearGradient id="paint13_linear" x1="14.5146" y1="42.4862" x2="47.3167" y2="29.447" gradientUnits="userSpaceOnUse">
<stop stop-color="#F2AE3A"/>
<stop offset="0.478431" stop-color="#F9EA80"/>
<stop offset="0.988235" stop-color="#F2B13D"/>
<stop offset="1" stop-color="#FAF289"/>
</linearGradient>
<linearGradient id="paint14_linear" x1="48.8281" y1="15.9292" x2="54.725" y2="13.4924" gradientUnits="userSpaceOnUse">
<stop stop-color="#F2AE3A"/>
<stop offset="0.478431" stop-color="#F9EA80"/>
<stop offset="0.988235" stop-color="#F2B13D"/>
<stop offset="1" stop-color="#FAF289"/>
</linearGradient>
<linearGradient id="paint15_linear" x1="42.3662" y1="23.822" x2="48.2551" y2="21.3932" gradientUnits="userSpaceOnUse">
<stop stop-color="#F2AE3A"/>
<stop offset="0.478431" stop-color="#F9EA80"/>
<stop offset="0.988235" stop-color="#F2B13D"/>
<stop offset="1" stop-color="#FAF289"/>
</linearGradient>
<linearGradient id="paint16_linear" x1="48.8281" y1="23.822" x2="54.725" y2="21.3852" gradientUnits="userSpaceOnUse">
<stop stop-color="#F2AE3A"/>
<stop offset="0.478431" stop-color="#F9EA80"/>
<stop offset="0.988235" stop-color="#F2B13D"/>
<stop offset="1" stop-color="#FAF289"/>
</linearGradient>
<linearGradient id="paint17_linear" x1="55.3008" y1="23.822" x2="61.1977" y2="21.3852" gradientUnits="userSpaceOnUse">
<stop stop-color="#F2AE3A"/>
<stop offset="0.478431" stop-color="#F9EA80"/>
<stop offset="0.988235" stop-color="#F2B13D"/>
<stop offset="1" stop-color="#FAF289"/>
</linearGradient>
<linearGradient id="paint18_linear" x1="61.7705" y1="23.822" x2="67.6674" y2="21.3852" gradientUnits="userSpaceOnUse">
<stop stop-color="#F2AE3A"/>
<stop offset="0.478431" stop-color="#F9EA80"/>
<stop offset="0.988235" stop-color="#F2B13D"/>
<stop offset="1" stop-color="#FAF289"/>
</linearGradient>
<linearGradient id="paint19_linear" x1="48.0102" y1="51.1283" x2="64.2771" y2="31.2436" gradientUnits="userSpaceOnUse">
<stop stop-color="#F2AE3A"/>
<stop offset="0.478431" stop-color="#F9EA80"/>
<stop offset="0.988235" stop-color="#F2B13D"/>
<stop offset="1" stop-color="#FAF289"/>
</linearGradient>
<linearGradient id="paint20_linear" x1="44.5764" y1="50.0273" x2="51.9785" y2="42.6317" gradientUnits="userSpaceOnUse">
<stop stop-color="#F2AE3A"/>
<stop offset="0.478431" stop-color="#F9EA80"/>
<stop offset="0.988235" stop-color="#F2B13D"/>
<stop offset="1" stop-color="#FAF289"/>
</linearGradient>
</defs>
</svg>
